<?xml version="1.0" standalone="yes"?>

<svg version="1.1" viewBox="0.0 0.0 960.0 540.0" fill="none" stroke="none" stroke-linecap="square" stroke-miterlimit="10" xmlns="http://www.w3.org/2000/svg" xmlns:xlink="http://www.w3.org/1999/xlink"><clipPath id="p.0"><path d="m0 0l960.0 0l0 540.0l-960.0 0l0 -540.0z" clip-rule="nonzero"></path></clipPath><g clip-path="url(#p.0)"><defs><linearGradient id="p.1" gradientUnits="userSpaceOnUse" gradientTransform="matrix(30.983867446833255 0.0 0.0 17.428425438843703 0.0 0.0)" spreadMethod="pad" x1="6.199525651342623E-14" y1="-1.3543478026844918E-6" x2="-1.3543478026844918E-6" y2="30.983866092485428"><stop offset="0.0" stop-color="#960f0f"></stop><stop offset="1.0" stop-color="#c82009"></stop></linearGradient></defs><path fill="url(#p.1)" d="m0 0l960.0 0l0 540.0l-960.0 0z" fill-rule="nonzero"></path><path fill="#000000" fill-opacity="0.0" d="m8.0 6.0l0 528.0" fill-rule="nonzero"></path><path stroke="#d23927" stroke-width="11.333333333333334" stroke-linejoin="round" stroke-linecap="butt" d="m8.0 6.0l0 528.0" fill-rule="nonzero"></path><path fill="#000000" fill-opacity="0.0" d="m952.0 6.0l0 528.0" fill-rule="nonzero"></path><path stroke="#d23927" stroke-width="12.0" stroke-linejoin="round" stroke-linecap="butt" d="m952.0 6.0l0 528.0" fill-rule="nonzero"></path><path fill="#000000" fill-opacity="0.0" d="m55.999897 6.0l0 528.0" fill-rule="nonzero"></path><path stroke="#d23927" stroke-width="7.333333333333333" stroke-linejoin="round" stroke-linecap="butt" d="m55.999897 6.0l0 528.0" fill-rule="nonzero"></path><path fill="#000000" fill-opacity="0.0" d="m112.0 6.0l-16.0 498.01575" fill-rule="nonzero"></path><path stroke="#d23927" stroke-width="16.0" stroke-linejoin="round" stroke-linecap="butt" d="m112.0 6.0l-16.0 498.01575" fill-rule="nonzero"></path><path fill="#000000" fill-opacity="0.0" d="m12.220998 6.0l0 0l-0.33333302 9.298984l-0.33333397 11.058251l0 14.82811l0.666667 18.346645l1.0 21.111206l1.0 11.560898l1.0 12.063545l1.333333 12.81752l2.0 13.32016l2.0 13.571503l2.333334 14.074127l3.0 14.32547l3.0 14.82811l3.666668 15.079422l4.333332 15.079437l4.333332 15.330765l5.333336 15.582077l5.666664 15.330765l6.0 15.582062l7.000004 15.582092l7.3333282 15.3307495l8.333336 15.33078l8.666664 15.079407l4.6666718 7.539734l4.666664 7.288391l5.0 7.288391l5.333336 7.288391l0 0l11.0 15.3307495l10.333336 14.32547l9.0 13.32016l8.0 12.31488l7.3333282 11.30957l6.6666718 10.555603l5.6666565 9.801636l5.0 8.796326l4.0 8.293701l3.6666718 7.288391l3.0 6.785736l2.3333282 6.031769l1.6666718 5.2778015l1.3333282 4.775177l1.0 4.2724915l0.3333435 3.769867l0.33332825 3.267212l-0.33332825 2.5132446l-0.3333435 2.5132446l-1.0 1.7592773l-0.6666565 1.7592163l-1.0 1.2566528l-1.3333435 0.7539673l-1.3333282 0.7539673l-1.0 0.5026245l-1.3333282 0.50268555l-2.3333435 0.25128174l-1.3333282 -0.25128174l-0.66667175 0" fill-rule="nonzero"></path><path stroke="#d23927" stroke-width="2.6666666666666665" stroke-linejoin="round" stroke-linecap="butt" d="m12.220998 6.0l0 0l-0.33333302 9.298984l-0.33333397 11.058251l0 14.82811l0.666667 18.346645l1.0 21.111206l1.0 11.560898l1.0 12.063545l1.333333 12.81752l2.0 13.32016l2.0 13.571503l2.333334 14.074127l3.0 14.32547l3.0 14.82811l3.666668 15.079422l4.333332 15.079437l4.333332 15.330765l5.333336 15.582077l5.666664 15.330765l6.0 15.582062l7.000004 15.582092l7.3333282 15.3307495l8.333336 15.33078l8.666664 15.079407l4.6666718 7.539734l4.666664 7.288391l5.0 7.288391l5.333336 7.288391l0 0l11.0 15.3307495l10.333336 14.32547l9.0 13.32016l8.0 12.31488l7.3333282 11.30957l6.6666718 10.555603l5.6666565 9.801636l5.0 8.796326l4.0 8.293701l3.6666718 7.288391l3.0 6.785736l2.3333282 6.031769l1.6666718 5.2778015l1.3333282 4.775177l1.0 4.2724915l0.3333435 3.769867l0.33332825 3.267212l-0.33332825 2.5132446l-0.3333435 2.5132446l-1.0 1.7592773l-0.6666565 1.7592163l-1.0 1.2566528l-1.3333435 0.7539673l-1.3333282 0.7539673l-1.0 0.5026245l-1.3333282 0.50268555l-2.3333435 0.25128174l-1.3333282 -0.25128174l-0.66667175 0" fill-rule="nonzero"></path><path fill="#000000" fill-opacity="0.0" d="m823.0089 494.75l0 0l0.666687 -2.5l1.0 -2.75l1.666687 -3.75l2.666626 -4.25l3.333374 -4.75l4.666626 -5.25l2.666687 -2.75l3.0 -2.75l3.333313 -3.0l3.666687 -2.75l4.0 -2.75l4.666687 -2.75l4.666626 -2.5l5.333374 -2.75l5.666626 -2.5l6.0 -2.25l6.666687 -2.25l7.0 -2.25l7.666687 -1.75l8.0 -1.75l8.666626 -1.5l9.0 -1.25l9.666687 -1.25l10.333313 -0.75" fill-rule="nonzero"></path><path stroke="#cb2813" stroke-width="2.6666666666666665" stroke-linejoin="round" stroke-linecap="butt" d="m823.0089 494.75l0 0l0.666687 -2.5l1.0 -2.75l1.666687 -3.75l2.666626 -4.25l3.333374 -4.75l4.666626 -5.25l2.666687 -2.75l3.0 -2.75l3.333313 -3.0l3.666687 -2.75l4.0 -2.75l4.666687 -2.75l4.666626 -2.5l5.333374 -2.75l5.666626 -2.5l6.0 -2.25l6.666687 -2.25l7.0 -2.25l7.666687 -1.75l8.0 -1.75l8.666626 -1.5l9.0 -1.25l9.666687 -1.25l10.333313 -0.75" fill-rule="nonzero"></path><path fill="#000000" fill-opacity="0.0" d="m868.56934 483.75l0 0l4.0 -2.25l4.333313 -3.0l6.0 -4.5l6.666687 -5.75l3.666626 -3.5l4.0 -4.0l4.0 -4.25l4.0 -5.0l4.0 -5.0l4.0 -5.75l4.0 -6.25l4.0 -6.5l4.0 -7.25l3.666687 -7.5l3.666687 -8.0l3.333313 -8.75l3.0 -9.25l2.666687 -9.75l2.666626 -10.25l2.0 -10.75l1.666687 -11.5l1.333313 -12.0l0.666687 -12.75l0.333313 -13.25l-0.333313 -13.75l-0.666687 -14.75" fill-rule="nonzero"></path><path stroke="#d0331f" stroke-width="2.6666666666666665" stroke-linejoin="round" stroke-linecap="butt" d="m868.56934 483.75l0 0l4.0 -2.25l4.333313 -3.0l6.0 -4.5l6.666687 -5.75l3.666626 -3.5l4.0 -4.0l4.0 -4.25l4.0 -5.0l4.0 -5.0l4.0 -5.75l4.0 -6.25l4.0 -6.5l4.0 -7.25l3.666687 -7.5l3.666687 -8.0l3.333313 -8.75l3.0 -9.25l2.666687 -9.75l2.666626 -10.25l2.0 -10.75l1.666687 -11.5l1.333313 -12.0l0.666687 -12.75l0.333313 -13.25l-0.333313 -13.75l-0.666687 -14.75" fill-rule="nonzero"></path><path fill="#000000" d="m0 161.86229l960.0 0l0 63.649994l-472.25586 21.423676l-0.79696655 -7.6362457l-399.1454 18.700287l-0.75579834 -7.2414856l-87.04598 4.078171l0 -29.324402z" fill-rule="nonzero"></path><path fill="#000000" d="m0 0l960.00006 0l0 168.0l-960.00006 0z" fill-rule="nonzero"></path><path fill="#e26f01" d="m49.637768 212.36003l18.243862 -5.9774017l6.2285843 -13.014725l8.575562 12.237915l19.17247 4.0140533l-18.243858 5.9774017l-6.2285843 13.014725l-8.575569 -12.2379z" fill-rule="nonzero"></path><path fill="#000000" d="m960.0 276.48l0 58.600006l0 205.09998l-960.0 0l0 -205.09998z" fill-rule="nonzero"></path><path fill="#000000" d="m96.00006 321.08875l629.8583 -39.08661l2.4881592 22.614166l-629.8583 39.08661z" fill-rule="nonzero"></path><path fill="#000000" fill-opacity="0.0" d="m104.00001 127.55449l813.92126 -43.55905l10.614136 111.622055l-813.9212 43.55905z" fill-rule="nonzero"></path><path fill="#ece47c" d="m152.2613 212.5666l-1.9541016 -20.549927l-18.192703 0.9736328l1.9540863 20.549927l-8.11338 0.43421936l-4.337509 -45.61464l8.113396 -0.4342041l1.6994629 17.872208l18.192719 -0.97361755l-1.6994781 -17.872223l8.019775 -0.42919922l4.337509 45.61464l-8.019775 0.42918396zm35.194885 -5.232071q-0.8951874 1.800415 -3.4269257 3.046875q-2.5317383 1.2464447 -5.4026337 1.4000854q-5.398529 0.28892517 -8.7439575 -2.239029q-3.3454437 -2.527954 -3.8161926 -7.4786224q-0.55070496 -5.7913513 3.491562 -9.293625q4.042267 -3.5022736 12.062042 -3.9314728q1.3730316 -0.07348633 3.2897644 0.29335022q-0.5595856 -5.8847504 -8.01767 -5.485611q-4.399948 0.23547363 -7.225296 1.8575287l-2.2594757 -5.9502563q3.841919 -2.145874 9.396469 -2.4431458q7.6453094 -0.40914917 11.532852 2.8721619q3.8875275 3.281311 4.808319 12.964676l0.67800903 7.1302185q0.63360596 6.663162 3.4801178 8.232025q-0.8074951 1.733139 -1.9562836 2.185791q-1.1487885 0.45266724 -2.6778564 0.5345001q-1.6850891 0.09017944 -3.1453552 -1.0834503q-1.4602509 -1.173645 -2.0674896 -2.6119995zm-1.9243469 -12.321014q-2.0356293 -0.29789734 -3.0342102 -0.2444458q-9.236771 0.49432373 -8.662384 6.5347595q0.42634583 4.4836273 5.6376343 4.204727q7.0212097 -0.37576294 6.3550262 -7.381424l-0.29606628 -3.113617zm39.18828 13.675278l-1.8327179 -19.273346q-0.4056244 -4.265671 -2.230423 -6.1395874q-1.8248138 -1.8739014 -5.538254 -1.6751709q-1.7162933 0.09185791 -3.5748444 1.1614532q-1.858551 1.0696106 -2.8145294 2.560318l2.291626 24.099472l-7.801346 0.417511l-3.1709747 -33.34694l5.616974 -0.3006134l1.7315216 3.0368042q2.827652 -3.9066925 9.037506 -4.239029q5.9602203 -0.31896973 9.747421 3.0615845q3.787201 3.3805695 4.39415 9.763504l1.945221 20.456528l-7.8013306 0.417511zm37.727264 -2.0190735l-0.19244385 -2.0238495q-0.8666992 1.1103973 -3.1004028 2.027954q-2.2337036 0.91755676 -4.698929 1.0494843q-6.98999 0.37409973 -11.420303 -3.8326569q-4.430313 -4.2067566 -5.1823425 -12.115356q-0.7520447 -7.908615 3.3785095 -13.121185q4.130539 -5.212555 11.058136 -5.583313q3.8070374 -0.20373535 7.0756226 1.1860657l-1.2701721 -13.357452l7.6236877 -2.2856903l4.5299683 47.63849l-7.8013306 0.417511zm-2.413025 -25.376053q-2.685913 -1.8591156 -5.4007874 -1.7138214q-4.6808014 0.25050354 -6.9375153 3.2347412q-2.2567291 2.9842377 -1.7504425 8.308548q0.9888916 10.399506 11.037018 9.861755q1.1233826 -0.06011963 2.6980286 -0.8172302q1.5746155 -0.7571106 2.0087585 -1.4688263l-1.6550598 -17.405167zm15.751831 22.502853l2.1881104 -6.344742q3.758484 2.584076 8.158447 2.3486023q4.555969 -0.24382019 4.248047 -3.4819946q-0.18060303 -1.8993073 -1.6690979 -3.0401459q-1.4884949 -1.1408234 -5.60849 -2.5789642q-8.984375 -3.1180725 -9.5972595 -9.563278q-0.41152954 -4.327942 2.6667786 -6.9180145q3.078308 -2.590088 8.227173 -2.8656464q5.2113037 -0.27890015 10.020538 1.8108368l-1.6723938 6.160675q-2.7660828 -2.0426025 -7.3220825 -1.7987823q-4.0878906 0.21878052 -3.7799683 3.456955q0.121398926 1.2765808 1.5609131 2.2322693q1.4395447 0.9556885 6.0038147 2.4482727q4.56427 1.4925842 6.73291 3.848816q2.1686401 2.3562164 2.5002441 5.8434906q0.4411316 4.6392975 -2.7539062 7.4859924q-3.1950378 2.8466797 -9.124054 3.1639862q-3.3389893 0.17869568 -5.403534 -0.25846863q-2.0645447 -0.4371643 -5.37619 -1.9498596zm27.566315 -14.212219l-0.69577026 -7.317032l16.50763 -0.88345337l0.69577026 7.317032l-16.50763 0.88345337zm21.90982 -3.1128387q-0.72540283 -7.6283875 3.2342224 -12.659683q3.9595947 -5.031296 11.199219 -5.418747q7.614105 -0.40748596 12.265015 3.975235q4.6509094 4.3827057 5.4118347 12.384735q0.7579651 7.970886 -3.0856934 12.902084q-3.8436584 4.9312134 -11.301758 5.330353q-7.614105 0.40748596 -12.293945 -4.114517q-4.67984 -4.521988 -5.428894 -12.39946zm8.113373 -0.4342041q1.0481262 11.022232 9.005493 10.5963745q3.651001 -0.1953888 5.516205 -3.1743317q1.8651733 -2.9789276 1.3618469 -8.272095q-1.0333252 -10.866562 -8.959473 -10.442368q-3.6510315 0.1953888 -5.5317993 3.1751556q-1.8807983 2.979782 -1.392273 8.117264zm53.33136 13.982391l-1.8327026 -19.273346q-0.40563965 -4.265671 -2.2304382 -6.139572q-1.8247986 -1.8739166 -5.5382385 -1.6751862q-1.7163086 0.09185791 -3.5748596 1.1614532q-1.858551 1.0696106 -2.8145447 2.560318l2.291626 24.099472l-7.8013306 0.417511l-3.1709595 -33.34694l5.6169434 -0.3006134l1.7315369 3.0368195q2.8276367 -3.9067078 9.037506 -4.239044q5.9602356 -0.31896973 9.747437 3.0615997q3.787201 3.3805542 4.3941345 9.763489l1.945221 20.456528l-7.8013306 0.417511zm49.92856 -2.672058l-13.980011 0.7481842l-4.3345337 -45.583496q9.1953125 -0.9302368 12.908752 -1.1289673q7.1148376 -0.38076782 11.413391 2.4404144q4.2985535 2.8211823 4.834442 8.456848q0.51516724 5.4177094 -4.9275513 8.869766q8.8003235 2.5020142 9.679657 11.749496q0.5921631 6.227249 -3.7719727 10.137939q-4.364105 3.910675 -11.822174 4.3098145zm-9.585327 -38.793182l1.0392151 10.928833q1.8841858 0.024337769 3.9437256 -0.085876465q7.9261475 -0.42419434 7.3606567 -6.371216q-0.5003662 -5.262039 -7.7088013 -4.876251q-1.9035339 0.101867676 -4.634796 0.4045105zm1.6402588 17.249496l1.4330139 15.069946q2.4859314 0.08602905 4.0150146 0.004196167q5.429718 -0.29058838 7.704651 -2.258728q2.2749329 -1.9681396 1.8693237 -6.233795q-0.3701172 -3.892044 -2.816864 -5.5448914q-2.4467468 -1.6528625 -8.126129 -1.3489075q-1.185791 0.0634613 -4.07901 0.31217957zm27.614227 -2.8235168q-0.9266968 -9.745651 3.7839966 -16.773071q4.710724 -7.027405 13.6666565 -7.506714q9.860901 -0.5277252 15.652496 5.2960815q5.7915955 5.823822 6.839691 16.846054q1.0481262 11.022247 -3.781372 17.790009q-4.8294983 6.767761 -14.846405 7.3038483q-9.205597 0.49266052 -14.730347 -5.658386q-5.5247498 -6.1510468 -6.584717 -17.297821zm8.425446 -0.45091248q0.7609253 8.002014 3.8932495 12.246948q3.1323242 4.244919 8.312439 3.967682q6.085022 -0.32565308 8.875 -4.79364q2.7899475 -4.467972 2.0112915 -12.656815q-1.5248108 -16.035172 -13.382843 -15.400558q-5.429718 0.29057312 -7.9187927 4.789398q-2.4890747 4.498825 -1.7903442 11.846985zm38.476196 18.72055l2.3058777 -7.415085q5.125366 3.1055298 9.774994 2.8567047q7.145996 -0.3824463 6.6723022 -5.3642426q-0.22210693 -2.3352203 -2.1085205 -4.3623047q-1.8864136 -2.0270844 -7.3947144 -4.3766937q-5.5082397 -2.3496246 -7.495117 -3.9488525q-1.9868774 -1.5992279 -3.191925 -3.881836q-1.2050171 -2.2826233 -1.4744263 -5.1160126q-0.50335693 -5.293167 3.0501099 -8.988358q3.5534668 -3.6951752 9.638519 -4.0208282q7.9261475 -0.42419434 11.920837 2.335022l-1.802002 7.1064453q-4.5652466 -2.8225555 -9.308472 -2.5687103q-2.8085022 0.15029907 -4.2125244 1.7119446q-1.4040222 1.5616455 -1.1790161 3.9279938q0.37304688 3.923172 9.481995 7.6917725q4.800354 1.9963074 7.0078735 3.7714996q2.2074585 1.7751923 3.506775 4.224884q1.2993164 2.4496918 1.5924072 5.532181q0.5270386 5.5422516 -3.5168457 9.357559q-4.0438232 3.8153076 -11.408325 4.209442q-6.397064 0.34236145 -11.859802 -2.6825256zm61.402283 -0.75123596l-1.9541016 -20.549942l-18.192688 0.9736328l1.9541016 20.549942l-8.113403 0.4342041l-4.3375244 -45.614624l8.113403 -0.43421936l1.6994629 17.872223l18.192749 -0.9736328l-1.6994629 -17.872208l8.019775 -0.42919922l4.3374634 45.614624l-8.019775 0.42919922zm34.776978 -29.087585l-3.8695068 0.20709229l-0.5950928 -6.2583923l3.8694458 -0.20709229l-0.6454468 -6.7877045l7.5289917 -3.2820435l0.91778564 9.652252l9.174377 -0.4909973l0.5951538 6.2583923l-9.174377 0.49098206l1.3886108 14.602921q0.3404541 3.5806732 1.6044922 4.9995117q1.2640381 1.4188538 4.07251 1.2685547q2.8084717 -0.15029907 5.097412 -1.8062439l0.68096924 7.1613464q-2.6260376 1.0793762 -7.6500854 1.3482513q-4.992859 0.2672119 -7.944458 -2.4069977q-2.9515991 -2.6742096 -3.446045 -7.8739777l-1.6047363 -16.875854zm43.56378 -1.3299866q-2.2210693 -1.2581024 -4.7174683 -1.1245117q-2.7148438 0.14529419 -4.5873413 2.7177887q-1.8724365 2.5724945 -1.5349121 6.1220245l1.8060303 18.993134l-7.8013306 0.41749573l-3.1709595 -33.34694l7.8013306 -0.417511l0.29016113 3.051361q2.927185 -3.8494263 8.356934 -4.1400146q3.9942627 -0.21377563 6.2316895 0.88697815l-2.6741333 6.8401947zm28.751282 21.337738q-0.89520264 1.800415 -3.426941 3.046875q-2.5317383 1.2464447 -5.402649 1.4000854q-5.3984985 0.28892517 -8.7439575 -2.239029q-3.345459 -2.527954 -3.8162231 -7.4786224q-0.5506592 -5.7913513 3.4915771 -9.293625q4.0422974 -3.5022736 12.062073 -3.9314728q1.3730469 -0.07348633 3.289734 0.29335022q-0.5595703 -5.8847504 -8.017639 -5.485611q-4.3999634 0.23547363 -7.225281 1.8575287l-2.2595215 -5.950241q3.841919 -2.1458893 9.396484 -2.443161q7.6453247 -0.40914917 11.532837 2.8721619q3.8875732 3.281311 4.8083496 12.964691l0.6779785 7.1302032q0.63360596 6.663162 3.4801025 8.232025q-0.8074341 1.733139 -1.9562378 2.185791q-1.1488037 0.45266724 -2.6778564 0.5345001q-1.6851196 0.09017944 -3.1453857 -1.0834503q-1.4602051 -1.173645 -2.0674438 -2.6119995zm-1.9243774 -12.321014q-2.0356445 -0.29789734 -3.0341797 -0.2444458q-9.236816 0.49432373 -8.662415 6.5347595q0.42633057 4.4836273 5.6376343 4.204727q7.021179 -0.37576294 6.3550415 -7.3814087l-0.29608154 -3.1136322zm19.404358 -31.769897q1.8723145 -0.10018921 3.3244019 1.1521149q1.4520264 1.2523193 1.6296997 3.1204987q0.1776123 1.8681793 -1.0227661 3.262436q-1.2003784 1.3942719 -3.0726929 1.4944763q-1.8723145 0.10020447 -3.3244019 -1.1521149q-1.4520874 -1.2523193 -1.6296997 -3.1204834q-0.17767334 -1.8681793 1.0227661 -3.2624512q1.2003784 -1.3942719 3.0726929 -1.4944763zm0.37420654 46.483932l-2.5640259 -26.964005l-4.2751465 0.22879028l-0.6069336 -6.3829346l12.170105 -0.65130615l3.1709595 33.34694l-7.8949585 0.42251587zm38.476196 -2.059143l-1.8327026 -19.273361q-0.40563965 -4.2656555 -2.2304688 -6.139572q-1.8247681 -1.8739014 -5.538208 -1.6751709q-1.7163086 0.09185791 -3.5748901 1.1614532q-1.8585205 1.0695953 -2.8145142 2.560318l2.291626 24.099472l-7.8013306 0.417511l-3.1709595 -33.34694l5.6169434 -0.3006134l1.7315063 3.0368042q2.8276367 -3.9066925 9.037537 -4.239029q5.960205 -0.31896973 9.747437 3.0615845q3.7871704 3.3805695 4.394104 9.763504l1.9452515 20.456528l-7.8013306 0.417511zm17.943298 -47.46425q1.8723755 -0.10018921 3.3244019 1.1521149q1.4520874 1.2523193 1.6296997 3.1204987q0.17767334 1.8681793 -1.0227661 3.262436q-1.2003784 1.3942719 -3.0726929 1.4944763q-1.8723145 0.10020447 -3.3244019 -1.1521149q-1.4520264 -1.2523193 -1.6296997 -3.1204834q-0.1776123 -1.8681793 1.0227661 -3.2624512q1.2003784 -1.3942719 3.0726929 -1.4944763zm0.37420654 46.483932l-2.5640259 -26.964005l-4.2750854 0.22879028l-0.6069946 -6.3829346l12.170105 -0.65130615l3.1709595 33.34694l-7.8949585 0.42251587zm38.476196 -2.059143l-1.8327026 -19.273361q-0.40563965 -4.2656555 -2.2304077 -6.139572q-1.8248291 -1.8739014 -5.538269 -1.6751709q-1.7163086 0.09184265 -3.574829 1.1614532q-1.8585815 1.0695953 -2.8145752 2.560318l2.291626 24.099472l-7.8013306 0.417511l-3.1709595 -33.34694l5.6169434 -0.3006134l1.7315674 3.0368042q2.8276367 -3.9066925 9.037476 -4.239029q5.960266 -0.318985 9.747437 3.0615845q3.7871704 3.3805695 4.394165 9.763504l1.9451904 20.456528l-7.8013306 0.417511zm14.544556 7.827652l4.3530884 -6.335434q4.4432373 3.5175781 9.467285 3.248703q3.3701782 -0.18035889 5.459778 -1.2936249q2.0896606 -1.113266 1.9238281 -2.856903q-0.28125 -2.9579468 -5.118103 -2.6990814q-1.3106079 0.07014465 -3.8710327 0.5201111q-2.5604248 0.4499817 -3.8710938 0.5201111q-8.050964 0.4308777 -8.598694 -5.3293304q-0.15692139 -1.6502228 1.0339355 -3.3099823q1.1907959 -1.6597595 2.8984375 -2.5022278q-6.062866 -3.3995972 -6.708313 -10.187302q-0.50927734 -5.355438 3.0895386 -9.068695q3.598755 -3.7132568 9.340515 -4.0205383q4.4935913 -0.24049377 7.68042 1.2788696l2.720581 -3.7131958l5.8633423 4.5994873l-3.4558105 2.9075928q2.2130127 2.8232574 2.59198 6.8087006q0.5418091 5.697937 -2.6133423 9.293564q-3.1552124 3.595642 -8.460144 3.879547q-0.8425293 0.04508972 -2.2615356 -0.035446167l-1.2971802 -0.11834717q-0.21844482 0.011688232 -1.605835 0.7587738q-1.3873901 0.7470856 -1.3193359 1.4632263q0.11846924 1.2454529 2.2716064 1.1302185q0.9673462 -0.05177307 3.2009277 -0.6407318q2.2335815 -0.58895874 3.8562622 -0.6757965q11.389954 -0.6095581 12.257446 8.513367q0.4796753 5.0440674 -3.8024292 8.167999q-4.2821045 3.123932 -10.710449 3.4679565q-7.6765137 0.41082764 -14.315674 -3.7715912zm4.9294434 -30.61969q0.28125 2.9579468 2.0897827 4.660614q1.8085327 1.702652 4.5857544 1.5540161q2.7772827 -0.14863586 4.109375 -1.9724274q1.3320312 -1.8237915 1.0418701 -4.8751373q-0.23980713 -2.522049 -2.0126953 -4.1796722q-1.7728882 -1.6576233 -4.331726 -1.5206757q-2.6836548 0.14361572 -4.2088623 1.9151611q-1.5252075 1.7715454 -1.2734985 4.4181213z" fill-rule="nonzero"></path><path fill="#000000" fill-opacity="0.0" d="m114.29593 268.29306l794.2362 -43.244095l4.0 41.16536l-794.2362 43.24408z" fill-rule="nonzero"></path><path fill="#ffffff" d="m130.09451 290.29013l0.71995544 7.4093323l-2.6211243 0.1427002l-1.869461 -19.239319q2.9663544 -0.30233765 3.5904236 -0.3363037q8.393814 -0.45703125 8.939835 5.1622314q0.63072205 6.4909363 -6.7957764 6.8952637q-0.43685913 0.023803711 -1.9638519 -0.03390503zm-0.9196167 -9.463989l0.6897125 7.097992q1.6830139 0.049194336 1.7766266 0.0440979q4.898987 -0.26672363 4.5238953 -4.1270447q-0.3418274 -3.5178528 -5.568466 -3.2332764q-0.51486206 0.028015137 -1.4217682 0.2182312zm13.473251 12.2230835l-1.5397339 -15.845978l2.496292 -0.1359253l1.4989014 15.42572q0.1104126 1.1362915 0.8136139 1.7552185q0.7173004 0.60253906 1.7782288 0.5447693l0.21780396 2.241455q-4.852188 0.26419067 -5.265106 -3.98526zm19.247849 -3.8646545l-10.15683 0.55300903q0.2389679 2.459381 1.7264099 3.7241516q1.2976685 1.0873108 3.185501 0.9844971q2.1374664 -0.116363525 3.451828 -1.4397888l1.2348785 1.7322998q-0.5213165 0.60736084 -1.6818237 1.0930481q-1.4433289 0.64193726 -3.2843475 0.742157q-2.667923 0.14526367 -4.699997 -1.5592651q-2.2515411 -1.8647156 -2.5767365 -5.2113647q-0.33880615 -3.4867554 1.5788574 -5.703644q1.7048187 -1.9862671 4.294739 -2.1272583q3.026764 -0.16482544 4.892227 1.43927q1.8282166 1.5435181 2.0898895 4.236389q0.08015442 0.8249817 -0.054595947 1.536499zm-6.598526 -5.117584q-1.6694031 0.09088135 -2.7024536 1.2425232q-0.9782257 1.0703735 -0.9704132 2.603485l7.800949 -0.42474365q-0.14671326 -1.5098877 -1.1967468 -2.4698486q-1.1371155 -1.0491028 -2.9313354 -0.951416zm17.70169 9.708221q-1.3147736 1.9649963 -4.403946 2.1332092q-1.6537933 0.09005737 -2.9872131 -1.0422668q-1.3349152 -1.1478577 -1.5073395 -2.9223633q-0.20874023 -2.1480713 1.5198059 -3.7287598q1.7285309 -1.5806885 4.630493 -1.7387085q0.7956848 -0.043304443 1.8274841 0.24475098q-0.3312378 -3.408905 -3.389206 -3.2424011q-2.3402863 0.12741089 -3.4815216 1.4570618l-1.2480011 -2.0289001q0.64611816 -0.61416626 1.8534241 -1.1023865q1.2229156 -0.48910522 2.3774567 -0.55197144q3.0579681 -0.16647339 4.582672 1.158844q1.5387878 1.3088989 1.833725 4.344208l0.49005127 5.043335q0.17999268 1.8523254 1.3326263 2.4154968l0.1210022 1.2452698q-1.513382 0.08239746 -2.3202362 -0.3118286q-0.806839 -0.39422607 -1.2312775 -1.3725891zm-0.748291 -5.2796326q-1.2114563 -0.20004272 -1.6795044 -0.17456055q-1.9034271 0.103637695 -3.009491 1.1496887q-1.0919647 1.0296326 -0.9634094 2.3527222q0.2132721 2.1947937 2.8031769 2.053772q1.9034424 -0.103637695 3.180481 -1.9727173l-0.33125305 -3.408905zm5.930664 5.7798767l0.6438141 -2.4135742q2.2393494 1.2550964 3.5031128 1.1863098q2.3246765 -0.12658691 2.1356049 -2.0722961q-0.13461304 -1.385376 -2.479599 -2.2748108q-1.7918243 -0.684845 -2.439621 -1.056427q-0.63371277 -0.3880005 -1.1204834 -0.87789917q-0.48677063 -0.48986816 -0.7611542 -1.0539246q-0.27590942 -0.57958984 -0.34094238 -1.2489319q-0.16940308 -1.7433777 1.0005798 -2.7772522q1.168457 -1.0494385 3.2123108 -1.1607361q1.5289917 -0.08325195 3.9645538 0.769989l-0.4782257 2.3419495q-1.5971375 -1.1022949 -3.1105194 -1.0198975q-0.88931274 0.048431396 -1.4569397 0.50183105q-0.5676422 0.45339966 -0.5041199 1.1071777q0.1315918 1.3542175 1.7271271 1.9558411l1.8743896 0.7272949q1.7108002 0.6579895 2.5534668 1.5822754q0.8567505 0.90789795 0.99742126 2.3554993q0.18301392 1.8834839 -1.0543976 3.0305786q-1.2217865 1.1462402 -3.5776825 1.2745056q-2.2154694 0.12063599 -4.2886963 -0.87750244zm22.989868 -7.2293396l-10.15683 0.55300903q0.23898315 2.4594116 1.7264252 3.7241516q1.2976685 1.0873108 3.185501 0.9845276q2.1374512 -0.11639404 3.451828 -1.4397888l1.2348633 1.7322998q-0.52130127 0.60736084 -1.6818085 1.0930481q-1.4433289 0.64190674 -3.2843628 0.742157q-2.667923 0.14526367 -4.699997 -1.5592957q-2.2515411 -1.8647156 -2.5767212 -5.2113647q-0.33880615 -3.4867249 1.5788574 -5.703644q1.7048187 -1.9862366 4.2947235 -2.1272583q3.0267792 -0.16479492 4.8922424 1.43927q1.8282166 1.5435181 2.0898743 4.236389q0.08016968 0.8250122 -0.054595947 1.536499zm-6.5985107 -5.117584q-1.6694031 0.090911865 -2.7024689 1.2425232q-0.97821045 1.070404 -0.97039795 2.603485l7.800934 -0.42474365q-0.14671326 -1.5098877 -1.1967316 -2.4698486q-1.1371155 -1.0491028 -2.9313354 -0.951416zm27.305954 -2.175232l-1.0772247 1.8268738q-0.41226196 -0.3687439 -1.412857 -0.6585388q-1.0005951 -0.2897644 -1.9367065 -0.23880005q-2.0438385 0.11126709 -3.1060333 1.6087341q-1.0466003 1.4966125 -0.80610657 3.9715881q0.24049377 2.474945 1.5829773 3.700653q1.358078 1.2248535 3.5267487 1.106781q1.6849976 -0.09173584 3.2585602 -1.4918823l1.202713 2.0470276q-1.8856049 1.4171143 -4.865555 1.5793762q-2.8863525 0.15713501 -4.961731 -1.670227q-2.059784 -1.8282166 -2.3804321 -5.128174q-0.32670593 -3.3622131 1.4253845 -5.5075073q1.7521057 -2.1452942 5.1533203 -2.3305054q1.0921326 -0.059448242 2.4168549 0.3378601q1.3247375 0.39730835 1.9800873 0.8467407zm12.483612 12.308258l-0.8591156 -8.84137q-0.15275574 -1.5721436 -1.0205841 -2.432495q-0.869339 -0.8759155 -2.2734985 -0.799469q-0.9049072 0.04928589 -1.7724915 0.64419556q-0.8690796 0.5793762 -1.2846832 1.3061523l1.0164185 10.460205l-2.4963074 0.1359253l-1.9269409 -19.83081l2.4963074 -0.1359253l0.71087646 7.315918q0.42362976 -0.80545044 1.4814606 -1.3794556q1.0718994 -0.59039307 2.2576447 -0.65493774q2.231079 -0.12149048 3.6385193 1.2884521q1.421524 1.3935242 1.6695862 3.9463196l0.85910034 8.84137l-2.496292 0.1359253zm17.066406 -7.751831l-10.15683 0.55300903q0.2389679 2.4594116 1.7264099 3.7241516q1.2976685 1.0873108 3.185501 0.9845276q2.1374664 -0.116363525 3.451828 -1.4397888l1.2348785 1.7322998q-0.5213165 0.60736084 -1.6818237 1.0930481q-1.4433289 0.64190674 -3.2843475 0.742157q-2.667923 0.14526367 -4.699997 -1.5592957q-2.2515411 -1.8647156 -2.5767365 -5.2113647q-0.33880615 -3.4867249 1.5788727 -5.703644q1.7048035 -1.9862366 4.2947235 -2.1272583q3.026764 -0.16479492 4.8922424 1.43927q1.8282166 1.5435181 2.0898743 4.2364197q0.08016968 0.8249817 -0.054595947 1.5364685zm-6.5985107 -5.117584q-1.6694031 0.090911865 -2.7024689 1.2425232q-0.9782257 1.070404 -0.9704132 2.603485l7.800949 -0.42474365q-0.14671326 -1.5098877 -1.1967468 -2.4698486q-1.1371155 -1.0491028 -2.9313202 -0.951416zm19.28711 -1.7386475l-1.07724 1.8269043q-0.41226196 -0.3687744 -1.4128418 -0.6585388q-1.0005798 -0.28979492 -1.9367065 -0.23880005q-2.0438538 0.11126709 -3.1060486 1.6087341q-1.0465851 1.4966125 -0.8060913 3.9715881q0.24047852 2.474945 1.5829773 3.700653q1.3580933 1.2248535 3.5267334 1.106781q1.6850281 -0.09176636 3.2585754 -1.4918823l1.2026978 2.0470276q-1.8855896 1.4171143 -4.8655396 1.5793457q-2.8863525 0.15716553 -4.961731 -1.6701965q-2.059784 -1.8282471 -2.3804321 -5.128174q-0.32670593 -3.3622131 1.4253845 -5.5075073q1.7521057 -2.1453247 5.1533203 -2.3305054q1.0921326 -0.059448242 2.41687 0.3378601q1.324707 0.39730835 1.980072 0.8467102zm12.904846 12.285339l-5.1145935 -6.7944946l-1.9664612 2.3604126l0.46585083 4.7942505l-2.4962769 0.1359253l-1.9269714 -19.83081l2.4963074 -0.1359253l1.1964111 12.3125305l4.7614746 -6.847107l2.917572 -0.158844l-3.9886475 5.600128l6.3700867 8.416107l-2.7147522 0.14782715zm13.023956 -20.19107q0.65527344 -0.03567505 1.1516113 0.39111328q0.49630737 0.4267578 0.5567932 1.0493774q0.0635376 0.6537781 -0.34506226 1.1298218q-0.40856934 0.4760437 -1.0638733 0.51171875q-0.62405396 0.033966064 -1.1203918 -0.39279175q-0.49630737 -0.42678833 -0.559845 -1.0805359q-0.06201172 -0.6382141 0.332489 -1.0978394q0.40859985 -0.4760437 1.0482788 -0.51086426zm0.5257263 19.453308l-1.163147 -11.970093l-1.9346313 0.10534668l-0.20419312 -2.1013794l4.4309387 -0.24124146l1.3673401 14.071472l-2.4963074 0.13589478zm15.047638 -0.8193054l-0.79556274 -8.187592q-0.21780396 -2.2414856 -0.9920349 -3.106903q-0.75860596 -0.8663025 -2.3499756 -0.7796631q-0.8581238 0.046722412 -1.7443237 0.61135864q-0.88619995 0.56466675 -1.3128357 1.3389893l1.0163879 10.460205l-2.4963074 0.1359253l-1.3673096 -14.071472l1.716217 -0.093444824l0.95706177 1.778717q1.0454712 -2.153778 3.8381958 -2.3058167q4.633789 -0.25228882 5.181305 5.3825073l0.8454895 8.701294l-2.4963074 0.13589478zm21.68695 -2.808197q-1.3147888 1.9650269 -4.403961 2.1332092q-1.6537781 0.09005737 -2.9872131 -1.0422668q-1.3348999 -1.1478577 -1.5073242 -2.9223633q-0.20874023 -2.1480713 1.5198059 -3.7287598q1.7285156 -1.5806885 4.630493 -1.7387085q0.7956848 -0.043304443 1.8274841 0.2447815q-0.3312378 -3.4089355 -3.3892212 -3.2424316q-2.340271 0.1274414 -3.4815063 1.4570618l-1.2480164 -2.0289001q0.64611816 -0.61416626 1.8534241 -1.1023865q1.2229309 -0.4890747 2.377472 -0.5519409q3.057953 -0.1665039 4.582672 1.1588135q1.5387878 1.3088989 1.8337097 4.3442383l0.49005127 5.0433044q0.17999268 1.8523254 1.3326416 2.4154968l0.1210022 1.2452698q-1.5133972 0.08239746 -2.3202515 -0.3118286q-0.80682373 -0.39422607 -1.2312622 -1.3725891zm-0.748291 -5.2796326q-1.2114563 -0.20004272 -1.6795044 -0.17456055q-1.9034424 0.103637695 -3.009491 1.1496887q-1.09198 1.0296326 -0.9634094 2.3527222q0.21325684 2.1947937 2.8031616 2.053772q1.9034424 -0.103637695 3.180481 -1.9727173l-0.3312378 -3.408905zm15.607513 6.097992l-0.79559326 -8.187592q-0.21780396 -2.2414856 -0.9920044 -3.1069336q-0.75860596 -0.866272 -2.350006 -0.77963257q-0.85809326 0.046722412 -1.7442932 0.61135864q-0.88619995 0.56463623 -1.3128662 1.3389893l1.0163879 10.460205l-2.4962769 0.1359253l-1.3673096 -14.071472l1.7161865 -0.093444824l0.95706177 1.778717q1.0454712 -2.153778 3.8382263 -2.3058167q4.6337585 -0.25231934 5.1812744 5.3825073l0.8454895 8.701263l-2.4962769 0.1359253zm14.806793 -0.8218384l-0.10134888 -1.0429077q-1.1835022 1.3788757 -3.664215 1.5139465q-2.6523132 0.14440918 -4.4891357 -1.6489868q-1.8227234 -1.809845 -2.1282349 -4.954132q-0.30856323 -3.175415 1.3614807 -5.519684q1.6856079 -2.3450928 4.306732 -2.4878235q2.1842651 -0.118927 3.4230347 0.846405l-0.63375854 -6.522064l2.4963074 -0.1359253l1.9254456 19.815247l-2.4963074 0.1359253zm-1.0481873 -10.787079q-1.0908508 -1.380249 -2.729065 -1.2910461q-2.0126343 0.10958862 -3.1140747 1.6874084q-1.1029358 1.5622864 -0.87908936 3.8660278q0.4945984 5.0899963 5.128357 4.8377075q0.592865 -0.032287598 1.3834534 -0.4508667q0.7906189 -0.41860962 0.9682007 -0.85076904l-0.757782 -7.798462zm14.773285 6.0494995l-1.5397644 -15.845978l2.4963074 -0.13589478l1.4989014 15.42569q0.1104126 1.1362915 0.81359863 1.755249q0.7173157 0.60250854 1.7782288 0.54473877l0.21780396 2.2414856q-4.852173 0.26419067 -5.2650757 -3.9852905zm6.4270325 -3.4482422q-0.31610107 -3.2532654 1.236206 -5.3563843q1.5679016 -2.104004 4.438629 -2.2602844q3.026764 -0.16479492 4.883728 1.674469q1.8569641 1.8392639 2.188202 5.248169q0.3312378 3.408905 -1.194397 5.463623q-1.5100403 2.053894 -4.4588013 2.214447q-3.011139 0.16394043 -4.8882446 -1.7211609q-1.8786011 -1.9006958 -2.2053223 -5.2628784zm2.6367188 -0.1435852q0.5142517 5.292389 4.258728 5.088501q1.747406 -0.09515381 2.6082764 -1.5660095q0.8609009 -1.4708557 0.6219177 -3.9302368q-0.5082092 -5.2301025 -4.252655 -5.0262146q-1.716217 0.09341431 -2.5942078 1.5495605q-0.8795166 1.4405823 -0.6420593 3.8843994zm13.112366 10.255432l1.1637878 -2.0663452q2.326416 1.3442688 4.16745 1.2440186q1.7006226 -0.09259033 2.6260376 -0.73760986q0.92697144 -0.62945557 0.84225464 -1.5011292q-0.16635132 -1.7122498 -2.6470642 -1.577179q-0.42123413 0.022949219 -1.5078125 0.30117798q-1.0880737 0.2626648 -1.6965332 0.29580688q-3.0111694 0.16394043 -3.2304993 -2.0931091q-0.0680542 -0.70043945 0.57958984 -1.2990417q0.6632385 -0.5994568 1.6687622 -0.90457153q-3.1004944 -1.239502 -3.4347534 -4.6795654q-0.21478271 -2.2103271 1.1720276 -3.756775q1.4009094 -1.5628357 3.6631775 -1.6860046q2.0750427 -0.112976074 3.3283691 0.67941284l1.1185608 -1.5631104l1.7723389 1.4526672l-1.3888855 1.2022705q1.0898438 1.2081604 1.2849426 3.216156q0.205719 2.1169434 -0.99539185 3.6376343q-1.1854858 1.5198059 -3.3189087 1.839386l-2.0538635 0.3309021q-0.35583496 0.050689697 -0.9556885 0.33370972q-0.59988403 0.28305054 -0.56207275 0.6721802q0.052947998 0.5447998 1.3479004 0.4743042q0.561676 -0.030578613 1.7433472 -0.29837036q1.1801758 -0.2833252 1.7574463 -0.3147583q2.0750427 -0.112976074 3.34198 0.81951904q1.2669373 0.9324951 1.4378662 2.6914368q0.1890564 1.9457397 -1.4433899 3.223877q-1.6309509 1.2937012 -4.298889 1.4389648q-1.3729553 0.07476807 -2.9332275 -0.32537842q-1.5602722 -0.40014648 -2.5488586 -1.0504761zm3.7346802 -16.446136q-1.2949829 0.07052612 -2.0326233 1.0339355q-0.7376709 0.9633789 -0.6106262 2.2709045q0.14370728 1.4787598 1.0331726 2.4005127q0.88946533 0.9217529 2.2468262 0.8478699q1.3261719 -0.07220459 1.984314 -1.046936q0.6566162 -0.9902954 0.50839233 -2.515747q-0.12704468 -1.3075256 -1.0275879 -2.1817322q-0.8849182 -0.87506104 -2.1018677 -0.8088074zm18.47705 -8.11026q0.65527344 -0.035705566 1.1516113 0.39108276q0.49630737 0.4267578 0.55682373 1.049408q0.06350708 0.65374756 -0.34506226 1.1297913q-0.40859985 0.4760437 -1.0638733 0.51171875q-0.6240845 0.033996582 -1.1203918 -0.39279175q-0.4963379 -0.4267578 -0.559845 -1.0805359q-0.06201172 -0.6381836 0.332489 -1.0978088q0.40856934 -0.4760437 1.0482483 -0.51086426zm0.5257263 19.453308l-1.1631165 -11.970093l-1.9346313 0.10531616l-0.20419312 -2.1013794l4.4309387 -0.24124146l1.3673096 14.071472l-2.4963074 0.1359253zm15.047668 -0.8193054l-0.79559326 -8.187622q-0.21780396 -2.241455 -0.9920044 -3.106903q-0.75860596 -0.8663025 -2.350006 -0.77963257q-0.85809326 0.046722412 -1.7442932 0.61135864q-0.88619995 0.56463623 -1.3128662 1.3389893l1.0163879 10.460205l-2.4962769 0.13589478l-1.3673096 -14.071472l1.7161865 -0.093444824l0.95706177 1.7787476q1.0454712 -2.153778 3.8382263 -2.3058472q4.6337585 -0.25228882 5.1812744 5.382538l0.8454895 8.701263l-2.4962769 0.1359253zm5.5825195 -12.462555l-1.6225891 0.08831787l-0.19210815 -1.9768372l1.6226196 -0.08834839l-0.28588867 -2.941925l2.4196472 -1.0863037l0.3781433 3.891449l3.8692627 -0.21066284l0.19207764 1.9768677l-3.8692627 0.21066284l0.67910767 6.989044q0.17242432 1.7745056 0.83792114 2.48938q0.6654663 0.71487427 2.0072327 0.6418152q0.9516907 -0.051818848 1.9345398 -0.5904236l0.5877075 2.1743774q-1.5223694 0.47409058 -3.3789978 0.5751953q-1.6694031 0.09088135 -2.9449463 -1.0915222q-1.2755432 -1.1824036 -1.4585571 -3.065857l-0.7759094 -7.9852295zm9.231873 4.551697q-0.31610107 -3.2532654 1.2361755 -5.3563843q1.5679016 -2.1039734 4.4386597 -2.2602844q3.026764 -0.16479492 4.883728 1.674469q1.8569336 1.8392639 2.1881714 5.248169q0.3312683 3.408905 -1.1943665 5.463623q-1.5100403 2.053894 -4.4588013 2.214447q-3.0111694 0.16394043 -4.8882446 -1.7211609q-1.8786316 -1.9006958 -2.2053223 -5.2628784zm2.6367188 -0.1435852q0.5142517 5.292389 4.2586975 5.088501q1.7474365 -0.09515381 2.608307 -1.5660095q0.86087036 -1.4708252 0.6219177 -3.9302368q-0.5082092 -5.2301025 -4.252655 -5.0262146q-1.716217 0.093444824 -2.5942078 1.5495605q-0.8795166 1.4405823 -0.6420593 3.8843994zm26.888031 8.05011q-0.35357666 1.3649902 -1.8275452 2.3371887q-1.4739685 0.9721985 -3.3930054 1.0766602l-0.21627808 -2.225891q1.5601807 -0.08496094 2.5968323 -0.8768616q1.0522461 -0.7927551 0.9508972 -1.8356628q-0.11193848 -1.1518555 -0.62646484 -2.2505188q-0.51608276 -1.1142273 -1.3160706 -2.72937l-4.773834 -9.582733l2.5587158 -0.13934326l5.2073364 10.654541l2.6560059 -11.082672l2.5587158 -0.13931274l-4.375305 16.793976zm5.903717 -9.83551q-0.3161316 -3.2532654 1.2361755 -5.3563843q1.5679016 -2.1039734 4.438629 -2.2602844q3.026764 -0.16479492 4.883728 1.674469q1.8569641 1.8392639 2.188202 5.248169q0.3312378 3.408905 -1.194397 5.463623q-1.5100403 2.053894 -4.4587708 2.214447q-3.0111694 0.16394043 -4.888275 -1.7211609q-1.8786011 -1.9006958 -2.2052917 -5.2628784zm2.6367188 -0.1435852q0.5142517 5.292389 4.2586975 5.088501q1.747406 -0.09515381 2.608307 -1.5660095q0.86087036 -1.4708252 0.6218872 -3.9302368q-0.5082092 -5.2301025 -4.252655 -5.0262146q-1.716217 0.093444824 -2.5942078 1.5495605q-0.8795166 1.4405823 -0.6420288 3.8843994zm14.257782 -7.8179626l0.8727112 8.981476q0.31610107 3.2532349 3.1400452 3.0994873q1.248169 -0.06796265 2.1942139 -0.8236389q0.96014404 -0.7720947 1.197052 -1.723877l-0.9604492 -9.884277l2.5119019 -0.13677979l1.3673096 14.071503l-2.5119019 0.13674927l-0.1890564 -1.9457092q-0.34109497 0.8479004 -1.5523987 1.618042q-1.1972046 0.7536926 -2.398529 0.8190918q-2.3246765 0.12658691 -3.685791 -1.1293945q-1.3626404 -1.2715454 -1.6000977 -3.715393l-0.8969116 -9.230499l2.5119019 -0.13677979zm20.066559 1.3328857q-0.86724854 -0.5317383 -1.6941528 -0.48672485q-1.3417358 0.07305908 -2.2208252 1.3571167q-0.8649292 1.2676392 -0.6970215 2.995453l0.78344727 8.06308l-2.4962769 0.1359253l-1.3673096 -14.071472l2.4962769 -0.1359253l0.21936035 2.2570496q1.1279297 -2.5964355 3.8270264 -2.7433777q0.67089844 -0.03652954 1.9588623 0.14370728l-0.8093872 2.4851685zm18.773743 10.964294l-1.3261719 0.07220459l-9.0876465 -19.112305l2.9175415 -0.158844l6.3378296 13.894714l3.413391 -14.425659l2.8239136 -0.15374756l-5.0788574 19.883636zm23.410034 -1.5406189l-3.4944458 -12.234375l-2.9858398 12.85321l-0.65527344 0.035705566l-5.548401 -12.38855l-1.0457153 12.481537l-2.4962769 0.1359253l1.7345581 -19.435547l1.201355 -0.06539917l5.951233 13.790588l2.8793945 -14.271408l1.185791 -0.06455994l5.7855225 19.026093l-2.5119019 0.13677979zm14.229248 -1.7918701l-0.7652588 1.3247986l-1.248169 0.06796265l-1.9526367 -20.095428l2.4962769 -0.1359253l0.66101074 6.802246q0.31195068 -0.5020752 1.2555542 -0.96029663q0.94207764 -0.4737854 1.8781738 -0.52474976q2.9019775 -0.15802002 4.8912964 1.7522888q1.987793 1.8947144 2.2842407 4.9456177q0.3418579 3.5178833 -1.2713623 5.6399536q-1.59906 2.1056824 -4.6726685 2.2730408q-0.99853516 0.054351807 -2.0021362 -0.26654053q-1.0036011 -0.32092285 -1.5543213 -0.8229675zm-0.6242676 -10.137299l0.7895508 8.125336q0.01965332 0.20236206 1.0026245 0.63391113q0.9830322 0.4315796 1.4666748 0.40524292q2.5587158 -0.13931274 3.548462 -1.4137573q0.98828125 -1.2900085 0.70843506 -4.1696777q-0.23138428 -2.3815613 -1.6564331 -3.6497192q-1.4265747 -1.2837219 -3.6108398 -1.1647949q-0.4524536 0.024627686 -1.2399902 0.47436523q-0.78912354 0.43417358 -1.0084839 0.75909424zm19.029724 12.562103q-0.35357666 1.3649902 -1.8275757 2.3371887q-1.473938 0.9721985 -3.3930054 1.0766907l-0.2163086 -2.2259216q1.5602417 -0.08493042 2.5968628 -0.87683105q1.0522461 -0.7927551 0.95092773 -1.8356628q-0.11193848 -1.151886 -0.6265259 -2.2505188q-0.51605225 -1.1142273 -1.31604 -2.72937l-4.7738037 -9.582764l2.5586548 -0.13931274l5.2073975 10.6545105l2.6560059 -11.082642l2.5587158 -0.13931274l-4.375305 16.793945zm20.694641 -23.22194l1.4154663 1.331253q-1.1091309 0.5298462 -3.05188 3.295807q-1.927124 2.7651062 -2.0375977 4.2107544q0.9892578 -1.1179504 2.9395142 -1.2241211q2.5587158 -0.13931274 4.24646 1.4118347q1.7034302 1.5503235 1.9802246 4.3988647q0.27374268 2.8173828 -1.1497192 4.631836q-1.4094238 1.7980347 -3.7965088 1.928009q-6.3499756 0.34573364 -7.165222 -8.04422q-0.34033203 -3.5022888 1.786438 -7.2797546q2.1252441 -3.7930298 4.8328247 -4.660263zm-3.658081 13.844345q0.399292 4.109375 3.784912 3.9250488q1.4197388 -0.07733154 2.142273 -1.1963806q0.7225952 -1.1190491 0.55163574 -2.8779907q-0.17694092 -1.8211975 -1.1565552 -2.8632507q-0.9795532 -1.0420227 -2.352539 -0.96725464q-3.3388062 0.18179321 -2.9697266 3.979828zm13.944702 -9.131012q0.81134033 -0.044158936 1.4460449 0.51589966q0.63323975 0.5444946 0.71191406 1.3539124q0.07867432 0.80944824 -0.4411621 1.432373q-0.52130127 0.60736084 -1.3325806 0.6515198q-0.8269043 0.045043945 -1.460144 -0.4994812q-0.6347656 -0.5600586 -0.7133789 -1.3694763q-0.07867432 -0.8094177 0.44262695 -1.4167786q0.5198364 -0.6229553 1.3466797 -0.66796875zm1.0346069 10.647003q0.8112793 -0.044158936 1.444519 0.5003357q0.63323975 0.5444946 0.711853 1.3539124q0.080200195 0.8249817 -0.43963623 1.447937q-0.52130127 0.60736084 -1.3325806 0.6515198q-0.8269043 0.045043945 -1.460144 -0.4994812q-0.6347046 -0.5600586 -0.7149048 -1.3850403q-0.07861328 -0.8094177 0.442688 -1.4168091q0.52130127 -0.60736084 1.3482056 -0.65237427zm16.564941 -2.4667358l0.5097656 5.2456665l-2.496338 0.1359253l-0.5097046 -5.2456665l-8.7838745 0.47824097l-0.14520264 -1.4942932l9.137573 -13.14122l0.9204712 -0.050125122l1.1707153 12.047913l1.9502563 -0.106170654l0.19659424 2.0235596l-1.9502563 0.106170654zm-3.3554077 -8.705444l-5.0009766 7.1261597l5.663452 -0.3083496l-0.6624756 -6.81781zm6.065857 3.566101q-0.40234375 -4.1404877 1.0285645 -6.84729q1.4309082 -2.706787 4.4888916 -2.873291q3.0267334 -0.16479492 4.751892 1.9320068q1.7407227 2.0959625 2.2686157 7.5284424q0.45526123 4.6853027 -0.8745117 7.464813q-1.3312378 2.763977 -4.404785 2.931305q-3.0735474 0.1673584 -4.875183 -1.9096375q-1.7875366 -2.0934143 -2.383484 -8.226349zm2.6608887 0.10549927q0.77593994 7.98526 4.192749 7.799225q1.9658203 -0.107055664 2.715454 -1.9161072q0.7480469 -1.8246155 0.31549072 -6.276428q-0.29644775 -3.0509033 -0.7944336 -4.4634094q-0.49798584 -1.4125061 -1.3648071 -2.1007843q-0.85266113 -0.7046814 -2.054016 -0.63926697q-3.7288818 0.20301819 -3.010437 7.5967712z" fill-rule="nonzero"></path></g></svg>

