<?xml version="1.0" standalone="yes"?>

<svg version="1.1" viewBox="0.0 0.0 960.0 540.0" fill="none" stroke="none" stroke-linecap="square" stroke-miterlimit="10" xmlns="http://www.w3.org/2000/svg" xmlns:xlink="http://www.w3.org/1999/xlink"><clipPath id="g9b57f7ba3_0_179.0"><path d="m0 0l960.0 0l0 540.0l-960.0 0l0 -540.0z" clip-rule="nonzero"></path></clipPath><g clip-path="url(#g9b57f7ba3_0_179.0)"><defs><linearGradient id="g9b57f7ba3_0_179.1" gradientUnits="userSpaceOnUse" gradientTransform="matrix(30.983867446833255 0.0 0.0 17.428425438843703 0.0 0.0)" spreadMethod="pad" x1="6.199525651342623E-14" y1="-1.3543478026844918E-6" x2="-1.3543478026844918E-6" y2="30.983866092485428"><stop offset="0.0" stop-color="#960f0f"></stop><stop offset="1.0" stop-color="#c82009"></stop></linearGradient></defs><path fill="url(#g9b57f7ba3_0_179.1)" d="m0 0l960.0 0l0 540.0l-960.0 0z" fill-rule="nonzero"></path><path fill="#000000" fill-opacity="0.0" d="m8.0 6.0l0 528.0" fill-rule="nonzero"></path><path stroke="#d23927" stroke-width="11.333333333333334" stroke-linejoin="round" stroke-linecap="butt" d="m8.0 6.0l0 528.0" fill-rule="nonzero"></path><path fill="#000000" fill-opacity="0.0" d="m952.0 6.0l0 528.0" fill-rule="nonzero"></path><path stroke="#d23927" stroke-width="12.0" stroke-linejoin="round" stroke-linecap="butt" d="m952.0 6.0l0 528.0" fill-rule="nonzero"></path><path fill="#000000" fill-opacity="0.0" d="m55.999897 6.0l0 528.0" fill-rule="nonzero"></path><path stroke="#d23927" stroke-width="7.333333333333333" stroke-linejoin="round" stroke-linecap="butt" d="m55.999897 6.0l0 528.0" fill-rule="nonzero"></path><path fill="#000000" fill-opacity="0.0" d="m112.0 6.0l-16.0 498.01575" fill-rule="nonzero"></path><path stroke="#d23927" stroke-width="16.0" stroke-linejoin="round" stroke-linecap="butt" d="m112.0 6.0l-16.0 498.01575" fill-rule="nonzero"></path><path fill="#000000" fill-opacity="0.0" d="m12.220998 6.0l0 0l-0.33333302 9.298984l-0.33333397 11.058251l0 14.82811l0.666667 18.346645l1.0 21.111206l1.0 11.560898l1.0 12.063545l1.333333 12.81752l2.0 13.32016l2.0 13.571503l2.333334 14.074127l3.0 14.32547l3.0 14.82811l3.666668 15.079422l4.333332 15.079437l4.333332 15.330765l5.333336 15.582077l5.666664 15.330765l6.0 15.582062l7.000004 15.582092l7.3333282 15.3307495l8.333336 15.33078l8.666664 15.079407l4.6666718 7.539734l4.666664 7.288391l5.0 7.288391l5.333336 7.288391l0 0l11.0 15.3307495l10.333336 14.32547l9.0 13.32016l8.0 12.31488l7.3333282 11.30957l6.6666718 10.555603l5.6666565 9.801636l5.0 8.796326l4.0 8.293701l3.6666718 7.288391l3.0 6.785736l2.3333282 6.031769l1.6666718 5.2778015l1.3333282 4.775177l1.0 4.2724915l0.3333435 3.769867l0.33332825 3.267212l-0.33332825 2.5132446l-0.3333435 2.5132446l-1.0 1.7592773l-0.6666565 1.7592163l-1.0 1.2566528l-1.3333435 0.7539673l-1.3333282 0.7539673l-1.0 0.5026245l-1.3333282 0.50268555l-2.3333435 0.25128174l-1.3333282 -0.25128174l-0.66667175 0" fill-rule="nonzero"></path><path stroke="#d23927" stroke-width="2.6666666666666665" stroke-linejoin="round" stroke-linecap="butt" d="m12.220998 6.0l0 0l-0.33333302 9.298984l-0.33333397 11.058251l0 14.82811l0.666667 18.346645l1.0 21.111206l1.0 11.560898l1.0 12.063545l1.333333 12.81752l2.0 13.32016l2.0 13.571503l2.333334 14.074127l3.0 14.32547l3.0 14.82811l3.666668 15.079422l4.333332 15.079437l4.333332 15.330765l5.333336 15.582077l5.666664 15.330765l6.0 15.582062l7.000004 15.582092l7.3333282 15.3307495l8.333336 15.33078l8.666664 15.079407l4.6666718 7.539734l4.666664 7.288391l5.0 7.288391l5.333336 7.288391l0 0l11.0 15.3307495l10.333336 14.32547l9.0 13.32016l8.0 12.31488l7.3333282 11.30957l6.6666718 10.555603l5.6666565 9.801636l5.0 8.796326l4.0 8.293701l3.6666718 7.288391l3.0 6.785736l2.3333282 6.031769l1.6666718 5.2778015l1.3333282 4.775177l1.0 4.2724915l0.3333435 3.769867l0.33332825 3.267212l-0.33332825 2.5132446l-0.3333435 2.5132446l-1.0 1.7592773l-0.6666565 1.7592163l-1.0 1.2566528l-1.3333435 0.7539673l-1.3333282 0.7539673l-1.0 0.5026245l-1.3333282 0.50268555l-2.3333435 0.25128174l-1.3333282 -0.25128174l-0.66667175 0" fill-rule="nonzero"></path><path fill="#000000" fill-opacity="0.0" d="m823.0089 494.75l0 0l0.666687 -2.5l1.0 -2.75l1.666687 -3.75l2.666626 -4.25l3.333374 -4.75l4.666626 -5.25l2.666687 -2.75l3.0 -2.75l3.333313 -3.0l3.666687 -2.75l4.0 -2.75l4.666687 -2.75l4.666626 -2.5l5.333374 -2.75l5.666626 -2.5l6.0 -2.25l6.666687 -2.25l7.0 -2.25l7.666687 -1.75l8.0 -1.75l8.666626 -1.5l9.0 -1.25l9.666687 -1.25l10.333313 -0.75" fill-rule="nonzero"></path><path stroke="#cb2813" stroke-width="2.6666666666666665" stroke-linejoin="round" stroke-linecap="butt" d="m823.0089 494.75l0 0l0.666687 -2.5l1.0 -2.75l1.666687 -3.75l2.666626 -4.25l3.333374 -4.75l4.666626 -5.25l2.666687 -2.75l3.0 -2.75l3.333313 -3.0l3.666687 -2.75l4.0 -2.75l4.666687 -2.75l4.666626 -2.5l5.333374 -2.75l5.666626 -2.5l6.0 -2.25l6.666687 -2.25l7.0 -2.25l7.666687 -1.75l8.0 -1.75l8.666626 -1.5l9.0 -1.25l9.666687 -1.25l10.333313 -0.75" fill-rule="nonzero"></path><path fill="#000000" fill-opacity="0.0" d="m868.56934 483.75l0 0l4.0 -2.25l4.333313 -3.0l6.0 -4.5l6.666687 -5.75l3.666626 -3.5l4.0 -4.0l4.0 -4.25l4.0 -5.0l4.0 -5.0l4.0 -5.75l4.0 -6.25l4.0 -6.5l4.0 -7.25l3.666687 -7.5l3.666687 -8.0l3.333313 -8.75l3.0 -9.25l2.666687 -9.75l2.666626 -10.25l2.0 -10.75l1.666687 -11.5l1.333313 -12.0l0.666687 -12.75l0.333313 -13.25l-0.333313 -13.75l-0.666687 -14.75" fill-rule="nonzero"></path><path stroke="#d0331f" stroke-width="2.6666666666666665" stroke-linejoin="round" stroke-linecap="butt" d="m868.56934 483.75l0 0l4.0 -2.25l4.333313 -3.0l6.0 -4.5l6.666687 -5.75l3.666626 -3.5l4.0 -4.0l4.0 -4.25l4.0 -5.0l4.0 -5.0l4.0 -5.75l4.0 -6.25l4.0 -6.5l4.0 -7.25l3.666687 -7.5l3.666687 -8.0l3.333313 -8.75l3.0 -9.25l2.666687 -9.75l2.666626 -10.25l2.0 -10.75l1.666687 -11.5l1.333313 -12.0l0.666687 -12.75l0.333313 -13.25l-0.333313 -13.75l-0.666687 -14.75" fill-rule="nonzero"></path><path fill="#000000" fill-opacity="0.2" d="m960.0 492.0l0 16.200012l0 25.919983l-960.0 0l0 -25.919983z" fill-rule="nonzero"></path><path fill="#000000" fill-opacity="0.2" d="m664.0811 481.85507l0.29803467 6.396515l208.05249 -5.2013855l0.77996826 16.740051l-568.0 14.199921l-0.29803467 -6.3964233l-208.05249 5.201355l-0.7799988 -16.74002z" fill-rule="nonzero"></path><path fill="#000000" fill-opacity="0.2" d="m0 -0.07386809l960.0 0l0 75.525l-472.25586 25.420639l-0.79696655 -9.060913l-399.1454 22.18914l-0.75579834 -8.592514l-87.04598 4.8390274l0 -34.79538z" fill-rule="nonzero"></path><path fill="#000000" d="m0 1.1751091E-6l960.0 0l0 71.25l-472.25586 23.981728l-0.79696655 -8.548027l-399.1454 20.933151l-0.75579834 -8.106148l-87.04598 4.5651245l0 -32.82583z" fill-rule="nonzero"></path><path fill="#000000" d="m960.0 498.24l0 16.200012l0 25.919983l-960.0 0l0 -25.919983z" fill-rule="nonzero"></path><path fill="#e26f01" d="m73.63788 74.36003l18.243858 -5.9774017l6.2285843 -13.014725l8.575569 12.237907l19.172462 4.014061l-18.243858 5.9774017l-6.2285843 13.014725l-8.575569 -12.237907z" fill-rule="nonzero"></path><path fill="#000000" d="m663.7542 491.23904l0.3209839 6.87796l208.05249 -5.2013855l0.84002686 18.000092l-568.0 14.19989l-0.3209839 -6.8778687l-208.05249 5.201355l-0.84000397 -18.00003z" fill-rule="nonzero"></path><path fill="#000000" fill-opacity="0.0" d="m119.99995 27.198784l860.62994 -57.196854l10.582703 89.637794l-860.62994 57.196854z" fill-rule="nonzero"></path><path fill="#ece47c" d="m149.55986 87.522484l-9.775314 0.6496582l-4.0319366 -34.15155q6.21698 -0.7107048 8.976517 -0.894104q5.0669403 -0.3367424 8.098877 1.6540794q3.0475311 1.9897919 3.5263062 6.0450935q0.2806549 2.3772469 -1.2655334 4.4530945q-1.5462036 2.075859 -3.6390076 2.7160416q4.1847076 0.70843506 6.3078156 2.8536224q2.136856 2.1286087 2.5954437 6.012993q0.53196716 4.5058975 -2.4714813 7.414589q-2.9897003 2.8921204 -8.321686 3.2464828zm-8.689819 -30.083721l1.159317 9.8197365q1.4976196 0.041404724 3.6647034 -0.10261536q6.6416016 -0.44139862 6.005081 -5.8329315q-0.5576477 -4.7234154 -6.6535797 -4.318287q-2.3385925 0.15542221 -4.175522 0.4340973zm1.5848846 13.42445l1.5390472 13.036011q2.4440613 0.07246399 3.7224884 -0.012504578q4.3965454 -0.29219055 6.228882 -2.0738678q1.8323364 -1.7816772 1.4085999 -5.3708572q-0.39256287 -3.325035 -2.5128937 -4.7813873q-2.120346 -1.4563446 -6.6260376 -1.1568985l-3.760086 0.3595047zm20.746063 -1.7545929q-0.875 -7.411415 2.2623138 -12.64661q3.1529236 -5.236229 9.482712 -5.6569023q7.1404877 -0.47455215 11.471985 3.8727837q4.3452454 4.330761 5.313797 12.534588q0.9942322 8.421356 -2.2623138 13.445244q-3.2409668 5.02285 -10.350281 5.495331q-6.470108 0.42999268 -10.728226 -4.3606796q-4.259964 -4.8062134 -5.189987 -12.683754zm4.9110413 -0.3263855q0.6933899 5.8731995 3.482315 9.665352q2.8026886 3.7755814 7.0277405 3.4947891q4.8019104 -0.31913757 6.886429 -4.0906677q2.082672 -3.7870712 1.3122406 -10.312843q-1.5573883 -13.191383 -11.379471 -12.538616q-4.349777 0.28908157 -6.2077637 3.9829216q-1.8424072 3.6928062 -1.1214905 9.799065zm29.320602 13.977051l1.2086792 -4.402336q1.4233551 0.87628937 3.4473877 1.383812q2.0240326 0.5075226 3.567505 0.40494537q2.7439423 -0.18236542 4.2204437 -1.7837982q1.492096 -1.6024704 1.2206116 -3.902031q-0.20361328 -1.7246704 -1.3133087 -3.138565q-1.0959473 -1.4304733 -5.011963 -2.92408l-2.911789 -1.1062241q-3.7005005 -1.3983078 -5.367798 -3.5424652q-1.6517181 -2.1451912 -2.0222626 -5.283779q-0.45126343 -3.822239 1.9643402 -6.5196114q2.4156036 -2.6973724 6.671829 -2.9802399q5.6905823 -0.3781929 8.120895 1.3081093l-0.89320374 4.1464806q-1.0143127 -0.6059456 -3.0053253 -1.1000023q-1.9928589 -0.50959396 -3.6298676 -0.4007988q-2.3853607 0.15852737 -3.5977478 1.6014786q-1.2123871 1.4429474 -0.9629059 3.5560532q0.15408325 1.3051567 0.7639618 2.345127q0.625473 1.0389328 1.5847626 1.711174q0.9730377 0.65567017 3.8399048 1.7805367l2.9640503 1.1497269q3.7023315 1.4138489 5.3769836 3.6201553q1.6902313 2.2052689 2.1084595 5.7478333q0.45309448 3.8377762 -2.3320923 6.731964q-2.7695923 2.8931503 -7.961258 3.2381897q-4.568054 0.30358887 -8.050293 -1.641655zm44.408035 -1.3697205l-1.9481049 -16.500885l-14.96698 0.9946976l1.9481049 16.500885l-4.677185 0.31084442l-4.031952 -34.151554l4.677185 -0.3108406l1.6160889 13.688587l14.96698 -0.99469376l-1.6160889 -13.688591l4.677185 -0.3108406l4.031952 34.151554l-4.677185 0.3108368zm41.646637 -2.7991257l-0.21646118 -1.8334274q-2.0340881 2.4684448 -6.4618225 2.7627106q-4.6927795 0.3118744 -8.02002 -2.8494415q-3.313507 -3.1778946 -3.973877 -8.771416q-0.6622009 -5.6090546 2.2357483 -9.810478q2.8979797 -4.20142 7.543976 -4.510189q3.88208 -0.25799942 6.1078796 1.4262314l-1.3666077 -11.575478l4.443329 -0.29530334l4.151184 35.161495l-4.443329 0.29529572zm-2.2617798 -19.157806q-1.980957 -2.405178 -4.896393 -2.211422q-3.585846 0.23831177 -5.486023 3.042366q-1.884613 2.8030205 -1.4003296 6.904934q1.0657654 9.027321 9.297607 8.48024q1.0445557 -0.06941986 2.4312134 -0.8349304q1.4022217 -0.7665558 1.6883545 -1.5372238l-1.6344299 -13.843964zm9.960175 6.040306q-0.68237305 -5.7799683 2.015686 -9.5453q2.6980286 -3.7653275 7.796173 -4.104145q5.3787537 -0.35747147 8.744537 2.863926q3.3813477 3.2203598 4.0967712 9.280006q0.71173096 6.028576 -1.9157104 9.726574q-2.6292725 3.682457 -7.8677063 4.0306015q-5.3475647 0.35539246 -8.755554 -2.9571533q-3.40979 -3.3280869 -4.114197 -9.29451zm4.677185 -0.31084442q1.1079712 9.384689 7.765167 8.942253q3.118103 -0.20722198 4.582672 -2.8413925q1.4645691 -2.6341705 0.95095825 -6.984688q-1.0951233 -9.275921 -7.736725 -8.834522q-3.0401611 0.20204544 -4.557007 2.7927094q-1.5168457 2.590664 -1.0050659 6.92564zm47.34839 9.960243l-1.1693115 0.07770538l-9.349976 -16.510063l-5.3207703 17.485077l-1.1693115 0.07770538l-11.959198 -24.902386l4.7395325 -0.31498718l7.2966003 16.020153l4.723755 -16.819016l1.1693115 -0.07771301l8.808868 15.919647l3.819519 -16.758919l4.380951 -0.29115677l-5.9699707 26.093952zm27.836548 -2.319786l-1.7151184 -14.527615q-0.4696045 -3.9776154 -1.8590393 -5.4982033q-1.3894043 -1.5205841 -4.226898 -1.3320045q-1.5122986 0.100502014 -3.0722656 1.1280861q-1.5462036 1.0110092 -2.2770996 2.4062996l2.190216 18.551846l-4.4432983 0.29529572l-2.9478455 -24.968853l3.0401611 -0.20204544l1.7828674 3.1230202q1.7635498 -3.828495 6.7369385 -4.159027q8.231842 -0.547081 9.409515 9.428032l1.8251953 15.459866l-4.443329 0.29530334zm10.273682 -7.8078384l-3.320221 -28.122978l4.443329 -0.29529953l3.2321472 27.377174q0.2366333 2.004345 1.5279236 3.0929909q1.3050537 1.0720673 3.1759033 0.947731l0.46777344 3.9620743q-8.637207 0.5740204 -9.526855 -6.961693zm11.49939 -6.276375q-0.68240356 -5.779972 2.0156555 -9.5453q2.698059 -3.7653275 7.796173 -4.104145q5.3787537 -0.35747147 8.744537 2.863926q3.3813782 3.2203598 4.0967712 9.280006q0.71173096 6.028572 -1.9157104 9.726574q-2.629242 3.682457 -7.8677063 4.0306015q-5.3475647 0.35539246 -8.755524 -2.9571533q-3.4098206 -3.3280869 -4.114197 -9.29451zm4.6771545 -0.3108406q1.1079712 9.3846855 7.765167 8.942249q3.118103 -0.20722198 4.5827026 -2.8413925q1.4645691 -2.6341705 0.95092773 -6.984684q-1.0951233 -9.275925 -7.736725 -8.834526q-3.0401611 0.20204544 -4.557007 2.7927094q-1.5168457 2.590664 -1.0050659 6.925644zm37.942627 7.218548q-2.2716064 3.5177536 -7.759491 3.8824768q-2.9466248 0.1958313 -5.3650513 -1.7887878q-2.420227 -2.0001602 -2.7944336 -5.1698227q-0.44760132 -3.7911644 2.5787964 -6.6387444q3.0263672 -2.8475838 8.186859 -3.1905441q1.4031677 -0.09325409 3.2520447 0.3945923q-0.7154236 -6.0596466 -6.1409607 -5.69907q-4.162689 0.27664948 -6.143585 2.6632614l-2.307434 -3.5736008q1.1417542 -1.1094093 3.2850037 -1.9878426q2.1569824 -0.8950043 4.183777 -1.029705q5.4566956 -0.362648 8.2117 1.9441147q2.7549744 2.3067589 3.39151 7.698292l1.0565796 8.949635q0.38705444 3.2784271 2.48172 4.2510376l0.26229858 2.2218704q-2.7127686 0.18029022 -4.1452637 -0.50748444q-1.4325256 -0.687767 -2.2340698 -2.4196777zm-1.5289001 -9.356705q-2.15979 -0.32624817 -3.0016785 -0.270298q-3.3675537 0.22380829 -5.2998657 2.0904274q-1.916687 1.8655815 -1.6397095 4.211754q0.4604187 3.8999252 5.0752563 3.5932312q3.3675537 -0.22380829 5.5777283 -3.5965424l-0.71173096 -6.028572zm28.758392 10.412735l-0.21646118 -1.8334274q-2.0340881 2.4684448 -6.4618225 2.7627106q-4.6927795 0.3118744 -8.02002 -2.8494415q-3.313507 -3.1778946 -3.973877 -8.771416q-0.66223145 -5.6090584 2.2357483 -9.810478q2.8979797 -4.20142 7.543976 -4.510189q3.8820496 -0.25799942 6.1078796 1.4262314l-1.3666077 -11.5754795l4.443329 -0.29530144l4.1511536 35.161495l-4.4432983 0.29529572zm-2.2617798 -19.157806q-1.980957 -2.405182 -4.896393 -2.211422q-3.585846 0.23831177 -5.4860535 3.042366q-1.8845825 2.8030167 -1.4002991 6.904934q1.0657654 9.027321 9.297607 8.48024q1.0445557 -0.069423676 2.4311829 -0.83493423q1.4022522 -0.76654816 1.6883545 -1.53722l-1.6343994 -13.843964zm56.505188 15.584152l-1.8656006 -15.801697q-0.6970215 -5.904274 -5.826355 -5.563381q-1.605835 0.10671997 -2.891571 1.1943779q-1.2857666 1.0876579 -1.6516724 2.3803902l2.1792297 18.458618l-4.443329 0.29529953l-2.0948486 -17.743889q-0.21646118 -1.8334312 -1.7443542 -2.7967339q-1.5141296 -0.97987366 -3.8059387 -0.8275604q-1.3251953 0.088069916 -2.7164307 1.2140541q-1.3912048 1.1259842 -1.868103 2.4104347l2.1737366 18.412006l-4.443329 0.29530334l-2.947815 -24.968857l2.8998413 -0.19272232l1.8067017 2.7925873q2.176239 -3.5270767 6.042694 -3.7840385q5.378784 -0.35746765 7.924652 2.8401184q0.57958984 -1.4791908 2.4944763 -2.5616798q1.9286499 -1.09906 4.080139 -1.2420502q3.88208 -0.25799942 6.2738647 1.9006462q2.4074097 2.157608 2.8972168 6.3061333l1.9700928 16.687336l-4.4432983 0.29530334zm24.558838 -4.529167q-2.2716064 3.5177574 -7.7595215 3.8824768q-2.9465942 0.1958313 -5.3650513 -1.7887917q-2.420227 -2.0001602 -2.7944336 -5.169819q-0.4475708 -3.7911644 2.5787964 -6.638748q3.0263672 -2.84758 8.18689 -3.1905441q1.4031372 -0.093250275 3.2520142 0.3945923q-0.71539307 -6.0596466 -6.14093 -5.69907q-4.1627197 0.27664948 -6.1436157 2.6632614l-2.307434 -3.5736008q1.1417847 -1.1094055 3.2850342 -1.9878387q2.1569824 -0.8950081 4.183777 -1.029705q5.456665 -0.362648 8.21167 1.9441109q2.755005 2.3067627 3.3914795 7.6982956l1.0566406 8.949631q0.38702393 3.2784271 2.4816895 4.2510376l0.2623291 2.2218742q-2.7127686 0.18028641 -4.1452637 -0.50748444q-1.4325562 -0.687767 -2.2340698 -2.4196777zm-1.5289307 -9.356709q-2.15979 -0.32624817 -3.001648 -0.2702942q-3.3675537 0.22380447 -5.2998657 2.0904236q-1.916748 1.8655853 -1.6397095 4.2117577q0.46038818 3.8999252 5.0752563 3.5932274q3.3675537 -0.22380447 5.5776978 -3.5965424l-0.71173096 -6.028572zm28.294373 10.474899l-1.7151489 -14.527615q-0.4696045 -3.9776154 -1.8590088 -5.4982033q-1.3894653 -1.5205841 -4.2269287 -1.3320084q-1.5122681 0.10050583 -3.0722656 1.1280899q-1.5462036 1.0110092 -2.2770996 2.4062996l2.1902466 18.551842l-4.4433594 0.29530334l-2.947815 -24.968857l3.0401611 -0.20204544l1.782898 3.1230202q1.7634888 -3.828495 6.7369385 -4.159027q8.231812 -0.547081 9.409485 9.428032l1.8251953 15.459869l-4.4432983 0.29529953zm11.287659 -35.420235q1.1380615 -0.07563782 2.0441895 0.6784363q0.90423584 0.7385349 1.0363159 1.8572388q0.13574219 1.1497803 -0.57958984 2.011612q-0.7171631 0.8462944 -1.8552246 0.9219341q-1.1225586 0.07460213 -2.0267944 -0.6639347q-0.9061279 -0.7540741 -1.0418701 -1.9038525q-0.13391113 -1.134243 0.567688 -1.9795017q0.7015381 -0.8452587 1.8552856 -0.9219322zm1.6291504 34.56179l-2.5076294 -21.239838l-3.4454956 0.22898483l-0.44024658 -3.7290115l7.888855 -0.5242882l2.947815 24.968853l-4.4432983 0.29529953zm21.35144 -32.89453q-1.411438 -0.37598228 -2.5807495 -0.29827118q-2.0267944 0.13469887 -3.1703491 1.7609882q-1.1436157 1.6262894 -0.8666382 3.9724617q0.07519531 0.6370411 0.2788086 1.2968655l5.0981445 -0.3388176l0.44024658 3.7290115l-5.0981445 0.3388214l2.5076294 21.239838l-4.4433594 0.29530334l-2.5075684 -21.239841l-3.6481934 0.24245453l-0.44024658 -3.7290115l3.6481934 -0.24245834q-0.5631714 -4.770029 1.4700317 -7.6455593q2.046875 -2.8921032 5.928955 -3.1501026q1.9332275 -0.12848091 4.2452393 0.42254066l-0.8619995 3.3457775zm27.528137 17.494282l-18.053894 1.1998482q0.51727295 4.381592 3.1970825 6.5837364q2.3780518 1.9090042 5.7144165 1.6872711q3.8197021 -0.25385284 6.098633 -2.6446152l2.2487793 3.0764008q-0.90789795 1.0938644 -2.9401855 1.9805794q-2.550415 1.1560478 -5.824463 1.3736382q-4.723938 0.31394958 -8.407043 -2.6671257q-4.078369 -3.267994 -4.780884 -9.21888q-0.7282715 -6.1684113 2.5888062 -10.147133q2.9732056 -3.5643826 7.5880127 -3.8710804q5.347595 -0.35539627 8.743591 2.4568424q3.2878418 2.6941566 3.8510132 7.4641876q0.17425537 1.4760666 -0.023864746 2.7263298zm-11.927795 -8.931816q-2.9622192 0.1968689 -4.7478027 2.2416496q-1.7030029 1.9453392 -1.6488647 4.6664886l13.87561 -0.9221649q-0.31549072 -2.6724586 -2.2120972 -4.362915q-2.0863647 -1.8344307 -5.2668457 -1.6230583zm16.566162 19.271992l1.0637817 -4.298752q4.012329 2.17622 6.272949 2.025978q4.115906 -0.2735405 3.7086792 -3.7228775q-0.291687 -2.4704704 -4.4763794 -3.9775352q-3.2208862 -1.1952972 -4.3809814 -1.8385315q-1.1463623 -0.6598091 -2.0341187 -1.5247154q-0.8895874 -0.8804474 -1.4004517 -1.880024q-0.5126953 -1.0151138 -0.65393066 -2.211506q-0.36315918 -3.076435 1.6782227 -4.950308q2.0414429 -1.8738728 5.6740723 -2.1152935q2.7283325 -0.18132591 7.0946655 1.266695l-0.77856445 4.1858425q-2.8824463 -1.9224625 -5.548462 -1.745285q-1.59021 0.10569 -2.5935059 0.9240227q-1.0032959 0.81832886 -0.8675537 1.9681091q0.2824707 2.392784 3.1731567 3.4534302l3.3510742 1.2336197q3.0714111 1.126934 4.5983887 2.7479935q1.5407104 1.6044846 1.8433838 4.1681824q0.39624023 3.3561134 -1.7479248 5.4247246q-2.130371 2.05204 -6.308655 2.3297234q-3.960022 0.26317978 -7.6678467 -1.4634933zm20.255188 -21.484219l-2.8999023 0.19272232l-0.41271973 -3.4959507l2.8998413 -0.19272232l-0.616333 -5.220619l4.243408 -1.9888935l0.8162842 6.9142113l6.8754272 -0.4569378l0.41278076 3.4959507l-6.8754883 0.4569378l1.4638062 12.398973q0.3723755 3.1541214 1.590332 4.419895q1.2160645 1.2502327 3.5858154 1.0927391q1.6994019 -0.11293793 3.4207764 -1.1042709l1.1152344 3.856411q-2.677002 0.88258743 -5.966614 1.1012115q-2.9777832 0.19790268 -5.2806396 -1.8726959q-2.3028564 -2.0705986 -2.6990967 -5.426712l-1.6729126 -14.17025z" fill-rule="nonzero"></path><path fill="#000000" fill-opacity="0.0" d="m48.0 126.0l864.0 0l0 356.37796l-864.0 0z" fill-rule="nonzero"></path><path fill="#ffffff" d="m68.93359 161.50937q2.140625 0 4.203125 1.125q2.078125 1.109375 3.234375 3.1875q1.15625 2.0625 1.15625 4.28125q0 3.578125 -2.53125 6.109375q-2.515625 2.515625 -6.0625 2.515625q-3.578125 0 -6.09375 -2.515625q-2.515625 -2.53125 -2.515625 -6.109375q0 -2.234375 1.140625 -4.296875q1.15625 -2.0625 3.21875 -3.171875q2.078125 -1.125 4.25 -1.125z" fill-rule="nonzero"></path><path fill="#ffffff" d="m113.765625 181.63437q-2.140625 0 -3.9375 -0.421875q-1.796875 -0.4375 -3.421875 -1.1875l5.234375 -26.21875l3.40625 0l-1.53125 7.59375l-1.265625 4.71875q0.609375 -1.09375 1.390625 -1.953125q0.78125 -0.875 1.703125 -1.46875q0.921875 -0.609375 1.96875 -0.9375q1.046875 -0.328125 2.15625 -0.328125q1.40625 0 2.453125 0.484375q1.046875 0.484375 1.734375 1.34375q0.6875 0.859375 1.015625 2.078125q0.328125 1.21875 0.328125 2.703125q0 2.8125 -0.734375 5.28125q-0.734375 2.46875 -2.15625 4.3125q-1.421875 1.84375 -3.53125 2.921875q-2.09375 1.078125 -4.8125 1.078125zm7.796875 -13.28125q0 -1.875 -0.640625 -2.90625q-0.625 -1.046875 -2.078125 -1.046875q-0.828125 0 -1.671875 0.390625q-0.84375 0.390625 -1.640625 1.078125q-0.796875 0.6875 -1.515625 1.609375q-0.71875 0.90625 -1.3125 1.953125q-0.59375 1.046875 -1.03125 2.171875q-0.421875 1.109375 -0.640625 2.203125l-0.828125 4.234375q0.90625 0.390625 1.875 0.625q0.984375 0.21875 1.8125 0.21875q1.59375 0 2.78125 -0.546875q1.203125 -0.546875 2.046875 -1.421875q0.859375 -0.890625 1.40625 -2.015625q0.546875 -1.140625 0.859375 -2.3125q0.328125 -1.171875 0.453125 -2.265625q0.125 -1.109375 0.125 -1.96875zm14.4296875 13.40625q-3.515625 0 -5.484375 -1.8125q-1.953125 -1.8125 -1.953125 -5.421875q0 -1.625 0.34375 -3.21875q0.34375 -1.59375 1.0 -3.046875q0.671875 -1.453125 1.640625 -2.703125q0.984375 -1.25 2.25 -2.15625q1.265625 -0.921875 2.796875 -1.4375q1.546875 -0.53125 3.34375 -0.53125q1.75 0 3.125 0.46875q1.375 0.453125 2.328125 1.359375q0.953125 0.90625 1.453125 2.265625q0.515625 1.359375 0.515625 3.15625q0 1.609375 -0.34375 3.203125q-0.34375 1.578125 -1.015625 3.046875q-0.65625 1.453125 -1.640625 2.703125q-0.96875 1.25 -2.234375 2.171875q-1.25 0.90625 -2.796875 1.4375q-1.546875 0.515625 -3.328125 0.515625zm7.875 -12.71875q0 -2.375 -1.109375 -3.546875q-1.109375 -1.171875 -3.25 -1.171875q-1.203125 0 -2.25 0.421875q-1.03125 0.421875 -1.859375 1.15625q-0.828125 0.734375 -1.46875 1.703125q-0.625 0.96875 -1.046875 2.046875q-0.421875 1.078125 -0.640625 2.25q-0.203125 1.15625 -0.203125 2.25q0 2.359375 1.109375 3.546875q1.109375 1.1875 3.234375 1.1875q1.234375 0 2.25 -0.421875q1.03125 -0.421875 1.859375 -1.15625q0.84375 -0.734375 1.46875 -1.703125q0.640625 -0.96875 1.0625 -2.0625q0.421875 -1.09375 0.625 -2.25q0.21875 -1.15625 0.21875 -2.25zm24.085938 -3.96875q-1.78125 -0.40625 -3.1875 -0.59375q-1.40625 -0.203125 -2.5 -0.203125q-1.34375 0 -2.3125 0.21875q-0.96875 0.203125 -1.59375 0.59375q-0.625 0.390625 -0.921875 0.953125q-0.28125 0.546875 -0.28125 1.234375q0 0.484375 0.21875 0.875q0.21875 0.375 0.703125 0.71875q0.5 0.34375 1.3125 0.671875q0.8125 0.328125 2.0 0.703125q1.421875 0.46875 2.421875 0.96875q1.015625 0.5 1.65625 1.125q0.640625 0.625 0.9375 1.390625q0.296875 0.75 0.296875 1.75q0 1.53125 -0.671875 2.703125q-0.65625 1.171875 -1.859375 1.96875q-1.1875 0.78125 -2.859375 1.203125q-1.65625 0.40625 -3.65625 0.40625q-1.875 0 -3.5625 -0.15625q-1.6875 -0.15625 -3.15625 -0.515625l0 -3.328125q1.765625 0.578125 3.5 0.859375q1.734375 0.265625 3.4375 0.265625q2.765625 0 4.03125 -0.78125q1.28125 -0.78125 1.28125 -2.421875q0 -0.4375 -0.203125 -0.796875q-0.1875 -0.359375 -0.65625 -0.671875q-0.46875 -0.328125 -1.296875 -0.65625q-0.8125 -0.34375 -2.078125 -0.71875q-1.171875 -0.34375 -2.140625 -0.78125q-0.96875 -0.4375 -1.671875 -1.046875q-0.703125 -0.625 -1.09375 -1.453125q-0.375 -0.828125 -0.375 -1.921875q0 -1.3125 0.53125 -2.4375q0.53125 -1.125 1.625 -1.953125q1.109375 -0.84375 2.78125 -1.328125q1.6875 -0.484375 3.96875 -0.484375q0.546875 0 1.203125 0.046875q0.65625 0.03125 1.359375 0.125q0.703125 0.09375 1.40625 0.21875q0.71875 0.109375 1.40625 0.265625l0 2.984375zm19.898438 16.328125l-3.390625 0l2.515625 -12.515625q0.484375 -2.390625 -0.078125 -3.453125q-0.546875 -1.0625 -2.109375 -1.0625q-1.25 0 -2.5 0.859375q-1.234375 0.859375 -2.3125 2.234375q-1.0625 1.375 -1.859375 3.09375q-0.796875 1.71875 -1.140625 3.4375l-1.484375 7.40625l-3.40625 0l5.53125 -27.59375l3.40625 0l-1.609375 7.984375l-1.078125 4.15625q0.546875 -1.015625 1.3125 -1.84375q0.765625 -0.828125 1.671875 -1.421875q0.90625 -0.59375 1.9375 -0.921875q1.046875 -0.328125 2.15625 -0.328125q3.109375 0 4.390625 1.875q1.296875 1.875 0.5625 5.53125l-2.515625 12.5625zm40.15625 -19.84375q1.40625 0 2.375 0.125q0.96875 0.109375 1.828125 0.359375l1.640625 -8.234375l3.390625 0l-3.71875 18.59375q-0.078125 0.359375 -0.171875 0.96875q-0.09375 0.609375 -0.21875 1.640625q-0.109375 1.015625 -0.28125 2.578125q-0.171875 1.546875 -0.40625 3.8125l-3.203125 0l0.484375 -4.515625q-1.34375 2.34375 -3.265625 3.609375q-1.921875 1.265625 -4.171875 1.265625q-1.40625 0 -2.453125 -0.46875q-1.046875 -0.484375 -1.734375 -1.34375q-0.671875 -0.875 -1.015625 -2.078125q-0.328125 -1.21875 -0.328125 -2.703125q0 -2.8125 0.734375 -5.28125q0.734375 -2.46875 2.15625 -4.328125q1.421875 -1.859375 3.515625 -2.921875q2.109375 -1.078125 4.84375 -1.078125zm-7.8125 13.28125q0 1.859375 0.640625 2.921875q0.65625 1.046875 2.09375 1.046875q0.84375 0 1.671875 -0.390625q0.84375 -0.390625 1.640625 -1.078125q0.8125 -0.6875 1.515625 -1.609375q0.71875 -0.9375 1.3125 -2.0q0.59375 -1.0625 1.015625 -2.21875q0.4375 -1.171875 0.671875 -2.3125l0.8125 -4.03125q-0.921875 -0.390625 -1.890625 -0.609375q-0.96875 -0.234375 -1.78125 -0.234375q-1.609375 0 -2.796875 0.546875q-1.1875 0.546875 -2.046875 1.4375q-0.859375 0.875 -1.40625 2.0q-0.546875 1.125 -0.875 2.296875q-0.328125 1.171875 -0.453125 2.28125q-0.125 1.109375 -0.125 1.953125zm22.398438 -2.15625q-0.09375 0.515625 -0.140625 0.96875q-0.046875 0.4375 -0.046875 0.875q0 2.125 1.265625 3.265625q1.265625 1.125 3.921875 1.125q1.71875 0 3.40625 -0.25q1.703125 -0.25 3.03125 -0.59375l0 2.796875q-1.46875 0.390625 -3.296875 0.640625q-1.828125 0.25 -3.703125 0.25q-4.140625 0 -6.109375 -1.84375q-1.96875 -1.859375 -1.96875 -5.359375q0 -2.6875 0.828125 -5.0625q0.84375 -2.390625 2.328125 -4.171875q1.484375 -1.796875 3.515625 -2.84375q2.046875 -1.046875 4.453125 -1.046875q1.65625 0 2.953125 0.390625q1.3125 0.390625 2.203125 1.078125q0.90625 0.6875 1.375 1.625q0.46875 0.921875 0.46875 1.984375q0 1.40625 -0.609375 2.546875q-0.59375 1.125 -1.890625 1.9375q-1.296875 0.8125 -3.34375 1.25q-2.046875 0.4375 -4.96875 0.4375l-3.671875 0zm3.640625 -2.609375q2.171875 0 3.578125 -0.265625q1.421875 -0.265625 2.25 -0.703125q0.828125 -0.453125 1.15625 -1.03125q0.34375 -0.59375 0.34375 -1.21875q0 -0.546875 -0.21875 -1.03125q-0.21875 -0.5 -0.6875 -0.859375q-0.453125 -0.375 -1.140625 -0.59375q-0.6875 -0.21875 -1.625 -0.21875q-1.28125 0 -2.328125 0.421875q-1.03125 0.421875 -1.875 1.203125q-0.84375 0.765625 -1.484375 1.859375q-0.640625 1.09375 -1.09375 2.4375l3.125 0zm21.601562 11.5625q-1.421875 0 -2.390625 -0.125q-0.96875 -0.109375 -1.8125 -0.34375l-1.640625 8.25l-3.40625 0l3.71875 -18.625q0.078125 -0.375 0.15625 -0.96875q0.09375 -0.609375 0.21875 -1.625q0.140625 -1.03125 0.296875 -2.578125q0.171875 -1.5625 0.40625 -3.828125l3.203125 0l-0.46875 4.53125q1.34375 -2.359375 3.25 -3.625q1.921875 -1.265625 4.1875 -1.265625q1.40625 0 2.4375 0.484375q1.046875 0.484375 1.71875 1.34375q0.6875 0.859375 1.015625 2.078125q0.34375 1.21875 0.34375 2.703125q0 2.8125 -0.734375 5.28125q-0.734375 2.46875 -2.171875 4.3125q-1.421875 1.84375 -3.515625 2.921875q-2.09375 1.078125 -4.8125 1.078125zm7.796875 -13.28125q0 -1.875 -0.640625 -2.90625q-0.640625 -1.046875 -2.078125 -1.046875q-0.84375 0 -1.6875 0.390625q-0.828125 0.390625 -1.640625 1.078125q-0.796875 0.6875 -1.515625 1.625q-0.71875 0.921875 -1.3125 1.984375q-0.578125 1.0625 -1.03125 2.21875q-0.4375 1.140625 -0.671875 2.296875l-0.796875 4.046875q0.921875 0.390625 1.890625 0.625q0.984375 0.21875 1.796875 0.21875q1.609375 0 2.796875 -0.546875q1.1875 -0.546875 2.03125 -1.421875q0.859375 -0.890625 1.40625 -2.015625q0.546875 -1.140625 0.859375 -2.3125q0.328125 -1.171875 0.453125 -2.265625q0.140625 -1.109375 0.140625 -1.96875zm23.054688 11.71875q-1.875 0.765625 -3.734375 1.1875q-1.859375 0.421875 -3.8125 0.421875q-1.84375 0 -3.015625 -0.453125q-1.171875 -0.453125 -1.765625 -1.46875q-0.578125 -1.03125 -0.59375 -2.6875q-0.015625 -1.671875 0.453125 -4.078125l3.875 -19.1875l3.484375 0l-3.828125 19.1875q-0.359375 1.75 -0.453125 2.859375q-0.078125 1.109375 0.140625 1.765625q0.21875 0.640625 0.734375 0.890625q0.515625 0.25 1.375 0.25q1.4375 0 3.203125 -0.40625q1.78125 -0.40625 3.9375 -1.3125l0 3.03125zm13.2421875 1.6875q-3.515625 0 -5.484375 -1.8125q-1.953125 -1.8125 -1.953125 -5.421875q0 -1.625 0.34375 -3.21875q0.34375 -1.59375 1.0 -3.046875q0.671875 -1.453125 1.640625 -2.703125q0.984375 -1.25 2.25 -2.15625q1.265625 -0.921875 2.796875 -1.4375q1.546875 -0.53125 3.34375 -0.53125q1.75 0 3.125 0.46875q1.375 0.453125 2.328125 1.359375q0.953125 0.90625 1.453125 2.265625q0.515625 1.359375 0.515625 3.15625q0 1.609375 -0.34375 3.203125q-0.34375 1.578125 -1.015625 3.046875q-0.65625 1.453125 -1.640625 2.703125q-0.96875 1.25 -2.234375 2.171875q-1.25 0.90625 -2.796875 1.4375q-1.546875 0.515625 -3.328125 0.515625zm7.875 -12.71875q0 -2.375 -1.109375 -3.546875q-1.109375 -1.171875 -3.25 -1.171875q-1.203125 0 -2.25 0.421875q-1.03125 0.421875 -1.859375 1.15625q-0.828125 0.734375 -1.46875 1.703125q-0.625 0.96875 -1.046875 2.046875q-0.421875 1.078125 -0.640625 2.25q-0.203125 1.15625 -0.203125 2.25q0 2.359375 1.109375 3.546875q1.109375 1.1875 3.234375 1.1875q1.234375 0 2.25 -0.421875q1.03125 -0.421875 1.859375 -1.15625q0.84375 -0.734375 1.46875 -1.703125q0.640625 -0.96875 1.0625 -2.0625q0.421875 -1.09375 0.625 -2.25q0.21875 -1.15625 0.21875 -2.25zm19.164062 8.4375q-1.71875 2.453125 -3.15625 4.296875q-1.421875 1.859375 -2.640625 3.203125q-1.21875 1.34375 -2.28125 2.203125q-1.0625 0.875 -2.0625 1.40625q-1.0 0.53125 -1.984375 0.734375q-0.96875 0.203125 -2.0 0.203125q-0.515625 0 -0.953125 -0.03125q-0.453125 -0.03125 -1.046875 -0.078125l0 -3.09375q0.53125 0.09375 1.109375 0.140625q0.5625 0.0625 1.125 0.0625q0.9375 0 1.765625 -0.28125q0.828125 -0.265625 1.65625 -0.890625q0.84375 -0.609375 1.703125 -1.59375q0.875 -0.96875 1.890625 -2.359375l-3.96875 -19.609375l3.671875 0l2.5625 12.96875l0.484375 3.359375q1.421875 -2.046875 2.46875 -3.75q1.046875 -1.71875 1.796875 -3.15625q0.75 -1.453125 1.234375 -2.6875q0.484375 -1.25 0.78125 -2.375q0.296875 -1.125 0.453125 -2.1875q0.15625 -1.0625 0.265625 -2.171875l3.71875 0q-0.234375 1.90625 -0.640625 3.65625q-0.390625 1.75 -1.140625 3.578125q-0.734375 1.828125 -1.90625 3.875q-1.15625 2.046875 -2.90625 4.578125zm23.070312 3.921875l2.75 -13.71875q0.21875 -1.0625 0.296875 -1.71875q0.078125 -0.671875 0.046875 -1.046875q-0.03125 -0.375 -0.15625 -0.5q-0.125 -0.140625 -0.34375 -0.140625q-0.390625 0 -0.90625 0.453125q-0.515625 0.4375 -1.09375 1.1875q-0.5625 0.734375 -1.125 1.703125q-0.5625 0.96875 -1.0625 2.015625q-0.5 1.046875 -0.875 2.078125q-0.375 1.015625 -0.53125 1.890625l-1.5625 7.796875l-3.125 0l2.765625 -13.71875q0.203125 -1.0625 0.28125 -1.71875q0.078125 -0.671875 0.046875 -1.046875q-0.015625 -0.375 -0.15625 -0.5q-0.125 -0.140625 -0.328125 -0.140625q-0.390625 0 -0.921875 0.453125q-0.515625 0.4375 -1.078125 1.1875q-0.5625 0.734375 -1.140625 1.703125q-0.578125 0.96875 -1.0625 2.015625q-0.484375 1.046875 -0.859375 2.078125q-0.375 1.015625 -0.546875 1.890625l-1.5625 7.796875l-3.109375 0l2.109375 -10.609375q0.078125 -0.375 0.15625 -0.96875q0.09375 -0.609375 0.21875 -1.625q0.140625 -1.03125 0.3125 -2.578125q0.171875 -1.5625 0.40625 -3.828125l2.90625 0l-0.484375 4.53125q0.546875 -1.0 1.125 -1.875q0.59375 -0.875 1.21875 -1.546875q0.640625 -0.6875 1.359375 -1.078125q0.734375 -0.390625 1.546875 -0.390625q1.0 0 1.65625 0.390625q0.65625 0.390625 0.953125 1.0625q0.3125 0.65625 0.265625 1.546875q-0.03125 0.890625 -0.421875 1.890625q0.546875 -1.0 1.109375 -1.875q0.578125 -0.875 1.21875 -1.546875q0.640625 -0.6875 1.359375 -1.078125q0.71875 -0.390625 1.546875 -0.390625q1.953125 0 2.625 1.484375q0.671875 1.46875 0.046875 4.59375l-2.75 13.890625l-3.125 0zm12.5078125 -8.71875q-0.09375 0.515625 -0.140625 0.96875q-0.046875 0.4375 -0.046875 0.875q0 2.125 1.265625 3.265625q1.265625 1.125 3.921875 1.125q1.71875 0 3.40625 -0.25q1.703125 -0.25 3.03125 -0.59375l0 2.796875q-1.46875 0.390625 -3.296875 0.640625q-1.828125 0.25 -3.703125 0.25q-4.140625 0 -6.109375 -1.84375q-1.96875 -1.859375 -1.96875 -5.359375q0 -2.6875 0.828125 -5.0625q0.84375 -2.390625 2.328125 -4.171875q1.484375 -1.796875 3.515625 -2.84375q2.046875 -1.046875 4.453125 -1.046875q1.65625 0 2.953125 0.390625q1.3125 0.390625 2.203125 1.078125q0.90625 0.6875 1.375 1.625q0.46875 0.921875 0.46875 1.984375q0 1.40625 -0.609375 2.546875q-0.59375 1.125 -1.890625 1.9375q-1.296875 0.8125 -3.34375 1.25q-2.046875 0.4375 -4.96875 0.4375l-3.671875 0zm3.640625 -2.609375q2.171875 0 3.578125 -0.265625q1.421875 -0.265625 2.25 -0.703125q0.828125 -0.453125 1.15625 -1.03125q0.34375 -0.59375 0.34375 -1.21875q0 -0.546875 -0.21875 -1.03125q-0.21875 -0.5 -0.6875 -0.859375q-0.453125 -0.375 -1.140625 -0.59375q-0.6875 -0.21875 -1.625 -0.21875q-1.28125 0 -2.328125 0.421875q-1.03125 0.421875 -1.875 1.203125q-0.84375 0.765625 -1.484375 1.859375q-0.640625 1.09375 -1.09375 2.4375l3.125 0zm15.9609375 0.71875q0.078125 -0.375 0.15625 -0.96875q0.09375 -0.609375 0.203125 -1.625q0.125 -1.03125 0.296875 -2.578125q0.171875 -1.5625 0.40625 -3.828125l3.203125 0l-0.484375 4.53125q1.375 -2.359375 3.265625 -3.625q1.90625 -1.265625 4.140625 -1.265625q3.109375 0 4.40625 1.875q1.296875 1.875 0.546875 5.53125l-2.515625 12.5625l-3.390625 0l2.515625 -12.515625q0.484375 -2.390625 -0.078125 -3.453125q-0.546875 -1.0625 -2.109375 -1.0625q-1.25 0 -2.5 0.859375q-1.234375 0.859375 -2.3125 2.234375q-1.0625 1.375 -1.859375 3.09375q-0.796875 1.71875 -1.140625 3.4375l-1.484375 7.40625l-3.40625 0l2.140625 -10.609375zm36.023438 10.328125q-1.21875 0.296875 -2.421875 0.421875q-1.203125 0.140625 -2.140625 0.140625q-2.0 0 -3.421875 -0.4375q-1.40625 -0.453125 -2.234375 -1.40625q-0.8125 -0.953125 -1.015625 -2.46875q-0.203125 -1.515625 0.25 -3.6875l1.796875 -9.046875l-5.5 0l0.578125 -2.84375l5.46875 0l1.09375 -5.390625l3.59375 -0.875l-1.296875 6.265625l8.8125 0l-0.5625 2.84375l-8.796875 0l-1.828125 9.171875q-0.28125 1.34375 -0.21875 2.296875q0.0625 0.9375 0.46875 1.546875q0.40625 0.609375 1.1875 0.890625q0.78125 0.265625 2.0 0.265625q0.71875 0 1.8125 -0.140625q1.09375 -0.15625 2.375 -0.46875l0 2.921875zm23.679688 -16.046875q-1.78125 -0.40625 -3.1875 -0.59375q-1.40625 -0.203125 -2.5 -0.203125q-1.34375 0 -2.3125 0.21875q-0.96875 0.203125 -1.59375 0.59375q-0.625 0.390625 -0.921875 0.953125q-0.28125 0.546875 -0.28125 1.234375q0 0.484375 0.21875 0.875q0.21875 0.375 0.703125 0.71875q0.5 0.34375 1.3125 0.671875q0.8125 0.328125 2.0 0.703125q1.421875 0.46875 2.421875 0.96875q1.015625 0.5 1.65625 1.125q0.640625 0.625 0.9375 1.390625q0.296875 0.75 0.296875 1.75q0 1.53125 -0.671875 2.703125q-0.65625 1.171875 -1.859375 1.96875q-1.1875 0.78125 -2.859375 1.203125q-1.65625 0.40625 -3.65625 0.40625q-1.875 0 -3.5625 -0.15625q-1.6875 -0.15625 -3.15625 -0.515625l0 -3.328125q1.765625 0.578125 3.5 0.859375q1.734375 0.265625 3.4375 0.265625q2.765625 0 4.03125 -0.78125q1.28125 -0.78125 1.28125 -2.421875q0 -0.4375 -0.203125 -0.796875q-0.1875 -0.359375 -0.65625 -0.671875q-0.46875 -0.328125 -1.296875 -0.65625q-0.8125 -0.34375 -2.078125 -0.71875q-1.171875 -0.34375 -2.140625 -0.78125q-0.96875 -0.4375 -1.671875 -1.046875q-0.703125 -0.625 -1.09375 -1.453125q-0.375 -0.828125 -0.375 -1.921875q0 -1.3125 0.53125 -2.4375q0.53125 -1.125 1.625 -1.953125q1.109375 -0.84375 2.78125 -1.328125q1.6875 -0.484375 3.96875 -0.484375q0.546875 0 1.203125 0.046875q0.65625 0.03125 1.359375 0.125q0.703125 0.09375 1.40625 0.21875q0.71875 0.109375 1.40625 0.265625l0 2.984375z" fill-rule="nonzero"></path><path fill="#ffffff" d="m68.93359 209.50937q2.140625 0 4.203125 1.125q2.078125 1.109375 3.234375 3.1875q1.15625 2.0625 1.15625 4.28125q0 3.578125 -2.53125 6.109375q-2.515625 2.515625 -6.0625 2.515625q-3.578125 0 -6.09375 -2.515625q-2.515625 -2.53125 -2.515625 -6.109375q0 -2.234375 1.140625 -4.296875q1.15625 -2.0625 3.21875 -3.171875q2.078125 -1.125 4.25 -1.125z" fill-rule="nonzero"></path><path fill="#ffffff" d="m113.765625 229.63437q-2.140625 0 -3.9375 -0.421875q-1.796875 -0.4375 -3.421875 -1.1875l5.234375 -26.21875l3.40625 0l-1.53125 7.59375l-1.265625 4.71875q0.609375 -1.09375 1.390625 -1.953125q0.78125 -0.875 1.703125 -1.46875q0.921875 -0.609375 1.96875 -0.9375q1.046875 -0.328125 2.15625 -0.328125q1.40625 0 2.453125 0.484375q1.046875 0.484375 1.734375 1.34375q0.6875 0.859375 1.015625 2.078125q0.328125 1.21875 0.328125 2.703125q0 2.8125 -0.734375 5.28125q-0.734375 2.46875 -2.15625 4.3125q-1.421875 1.84375 -3.53125 2.921875q-2.09375 1.078125 -4.8125 1.078125zm7.796875 -13.28125q0 -1.875 -0.640625 -2.90625q-0.625 -1.046875 -2.078125 -1.046875q-0.828125 0 -1.671875 0.390625q-0.84375 0.390625 -1.640625 1.078125q-0.796875 0.6875 -1.515625 1.609375q-0.71875 0.90625 -1.3125 1.953125q-0.59375 1.046875 -1.03125 2.171875q-0.421875 1.109375 -0.640625 2.203125l-0.828125 4.234375q0.90625 0.390625 1.875 0.625q0.984375 0.21875 1.8125 0.21875q1.59375 0 2.78125 -0.546875q1.203125 -0.546875 2.046875 -1.421875q0.859375 -0.890625 1.40625 -2.015625q0.546875 -1.140625 0.859375 -2.3125q0.328125 -1.171875 0.453125 -2.265625q0.125 -1.109375 0.125 -1.96875zm14.4296875 13.40625q-3.515625 0 -5.484375 -1.8125q-1.953125 -1.8125 -1.953125 -5.421875q0 -1.625 0.34375 -3.21875q0.34375 -1.59375 1.0 -3.046875q0.671875 -1.453125 1.640625 -2.703125q0.984375 -1.25 2.25 -2.15625q1.265625 -0.921875 2.796875 -1.4375q1.546875 -0.53125 3.34375 -0.53125q1.75 0 3.125 0.46875q1.375 0.453125 2.328125 1.359375q0.953125 0.90625 1.453125 2.265625q0.515625 1.359375 0.515625 3.15625q0 1.609375 -0.34375 3.203125q-0.34375 1.578125 -1.015625 3.046875q-0.65625 1.453125 -1.640625 2.703125q-0.96875 1.25 -2.234375 2.171875q-1.25 0.90625 -2.796875 1.4375q-1.546875 0.515625 -3.328125 0.515625zm7.875 -12.71875q0 -2.375 -1.109375 -3.546875q-1.109375 -1.171875 -3.25 -1.171875q-1.203125 0 -2.25 0.421875q-1.03125 0.421875 -1.859375 1.15625q-0.828125 0.734375 -1.46875 1.703125q-0.625 0.96875 -1.046875 2.046875q-0.421875 1.078125 -0.640625 2.25q-0.203125 1.15625 -0.203125 2.25q0 2.359375 1.109375 3.546875q1.109375 1.1875 3.234375 1.1875q1.234375 0 2.25 -0.421875q1.03125 -0.421875 1.859375 -1.15625q0.84375 -0.734375 1.46875 -1.703125q0.640625 -0.96875 1.0625 -2.0625q0.421875 -1.09375 0.625 -2.25q0.21875 -1.15625 0.21875 -2.25zm24.085938 -3.96875q-1.78125 -0.40625 -3.1875 -0.59375q-1.40625 -0.203125 -2.5 -0.203125q-1.34375 0 -2.3125 0.21875q-0.96875 0.203125 -1.59375 0.59375q-0.625 0.390625 -0.921875 0.953125q-0.28125 0.546875 -0.28125 1.234375q0 0.484375 0.21875 0.875q0.21875 0.375 0.703125 0.71875q0.5 0.34375 1.3125 0.671875q0.8125 0.328125 2.0 0.703125q1.421875 0.46875 2.421875 0.96875q1.015625 0.5 1.65625 1.125q0.640625 0.625 0.9375 1.390625q0.296875 0.75 0.296875 1.75q0 1.53125 -0.671875 2.703125q-0.65625 1.171875 -1.859375 1.96875q-1.1875 0.78125 -2.859375 1.203125q-1.65625 0.40625 -3.65625 0.40625q-1.875 0 -3.5625 -0.15625q-1.6875 -0.15625 -3.15625 -0.515625l0 -3.328125q1.765625 0.578125 3.5 0.859375q1.734375 0.265625 3.4375 0.265625q2.765625 0 4.03125 -0.78125q1.28125 -0.78125 1.28125 -2.421875q0 -0.4375 -0.203125 -0.796875q-0.1875 -0.359375 -0.65625 -0.671875q-0.46875 -0.328125 -1.296875 -0.65625q-0.8125 -0.34375 -2.078125 -0.71875q-1.171875 -0.34375 -2.140625 -0.78125q-0.96875 -0.4375 -1.671875 -1.046875q-0.703125 -0.625 -1.09375 -1.453125q-0.375 -0.828125 -0.375 -1.921875q0 -1.3125 0.53125 -2.4375q0.53125 -1.125 1.625 -1.953125q1.109375 -0.84375 2.78125 -1.328125q1.6875 -0.484375 3.96875 -0.484375q0.546875 0 1.203125 0.046875q0.65625 0.03125 1.359375 0.125q0.703125 0.09375 1.40625 0.21875q0.71875 0.109375 1.40625 0.265625l0 2.984375zm19.898438 16.328125l-3.390625 0l2.515625 -12.515625q0.484375 -2.390625 -0.078125 -3.453125q-0.546875 -1.0625 -2.109375 -1.0625q-1.25 0 -2.5 0.859375q-1.234375 0.859375 -2.3125 2.234375q-1.0625 1.375 -1.859375 3.09375q-0.796875 1.71875 -1.140625 3.4375l-1.484375 7.40625l-3.40625 0l5.53125 -27.59375l3.40625 0l-1.609375 7.984375l-1.078125 4.15625q0.546875 -1.015625 1.3125 -1.84375q0.765625 -0.828125 1.671875 -1.421875q0.90625 -0.59375 1.9375 -0.921875q1.046875 -0.328125 2.15625 -0.328125q3.109375 0 4.390625 1.875q1.296875 1.875 0.5625 5.53125l-2.515625 12.5625zm40.15625 -19.84375q1.40625 0 2.375 0.125q0.96875 0.109375 1.828125 0.359375l1.640625 -8.234375l3.390625 0l-3.71875 18.59375q-0.078125 0.359375 -0.171875 0.96875q-0.09375 0.609375 -0.21875 1.640625q-0.109375 1.015625 -0.28125 2.578125q-0.171875 1.546875 -0.40625 3.8125l-3.203125 0l0.484375 -4.515625q-1.34375 2.34375 -3.265625 3.609375q-1.921875 1.265625 -4.171875 1.265625q-1.40625 0 -2.453125 -0.46875q-1.046875 -0.484375 -1.734375 -1.34375q-0.671875 -0.875 -1.015625 -2.078125q-0.328125 -1.21875 -0.328125 -2.703125q0 -2.8125 0.734375 -5.28125q0.734375 -2.46875 2.15625 -4.328125q1.421875 -1.859375 3.515625 -2.921875q2.109375 -1.078125 4.84375 -1.078125zm-7.8125 13.28125q0 1.859375 0.640625 2.921875q0.65625 1.046875 2.09375 1.046875q0.84375 0 1.671875 -0.390625q0.84375 -0.390625 1.640625 -1.078125q0.8125 -0.6875 1.515625 -1.609375q0.71875 -0.9375 1.3125 -2.0q0.59375 -1.0625 1.015625 -2.21875q0.4375 -1.171875 0.671875 -2.3125l0.8125 -4.03125q-0.921875 -0.390625 -1.890625 -0.609375q-0.96875 -0.234375 -1.78125 -0.234375q-1.609375 0 -2.796875 0.546875q-1.1875 0.546875 -2.046875 1.4375q-0.859375 0.875 -1.40625 2.0q-0.546875 1.125 -0.875 2.296875q-0.328125 1.171875 -0.453125 2.28125q-0.125 1.109375 -0.125 1.953125zm25.757812 6.921875q-3.515625 0 -5.484375 -1.8125q-1.953125 -1.8125 -1.953125 -5.421875q0 -1.625 0.34375 -3.21875q0.34375 -1.59375 1.0 -3.046875q0.671875 -1.453125 1.640625 -2.703125q0.984375 -1.25 2.25 -2.15625q1.265625 -0.921875 2.796875 -1.4375q1.546875 -0.53125 3.34375 -0.53125q1.75 0 3.125 0.46875q1.375 0.453125 2.328125 1.359375q0.953125 0.90625 1.453125 2.265625q0.515625 1.359375 0.515625 3.15625q0 1.609375 -0.34375 3.203125q-0.34375 1.578125 -1.015625 3.046875q-0.65625 1.453125 -1.640625 2.703125q-0.96875 1.25 -2.234375 2.171875q-1.25 0.90625 -2.796875 1.4375q-1.546875 0.515625 -3.328125 0.515625zm7.875 -12.71875q0 -2.375 -1.109375 -3.546875q-1.109375 -1.171875 -3.25 -1.171875q-1.203125 0 -2.25 0.421875q-1.03125 0.421875 -1.859375 1.15625q-0.828125 0.734375 -1.46875 1.703125q-0.625 0.96875 -1.046875 2.046875q-0.421875 1.078125 -0.640625 2.25q-0.203125 1.15625 -0.203125 2.25q0 2.359375 1.109375 3.546875q1.109375 1.1875 3.234375 1.1875q1.234375 0 2.25 -0.421875q1.03125 -0.421875 1.859375 -1.15625q0.84375 -0.734375 1.46875 -1.703125q0.640625 -0.96875 1.0625 -2.0625q0.421875 -1.09375 0.625 -2.25q0.21875 -1.15625 0.21875 -2.25zm27.601562 -7.25q-0.171875 2.59375 -0.71875 5.359375q-0.53125 2.765625 -1.4375 5.390625q-0.90625 2.609375 -2.15625 4.90625q-1.234375 2.296875 -2.8125 3.953125l-2.875 0l-1.296875 -8.203125l-0.15625 -2.0l-1.0625 2.109375l-4.40625 8.09375l-4.15625 0l1.3125 -19.609375l3.28125 0l-1.15625 13.3125l-0.296875 2.96875l1.375 -2.59375l4.6875 -8.8125l2.4375 0l1.390625 8.703125l0.375 2.59375q0.984375 -1.5 1.75 -3.375q0.765625 -1.875 1.28125 -3.96875q0.53125 -2.09375 0.84375 -4.328125q0.3125 -2.25 0.4375 -4.5l3.359375 0zm2.7578125 9.0q0.078125 -0.375 0.15625 -0.96875q0.09375 -0.609375 0.203125 -1.625q0.125 -1.03125 0.296875 -2.578125q0.171875 -1.5625 0.40625 -3.828125l3.203125 0l-0.484375 4.53125q1.375 -2.359375 3.265625 -3.625q1.90625 -1.265625 4.140625 -1.265625q3.109375 0 4.40625 1.875q1.296875 1.875 0.546875 5.53125l-2.515625 12.5625l-3.390625 0l2.515625 -12.515625q0.484375 -2.390625 -0.078125 -3.453125q-0.546875 -1.0625 -2.109375 -1.0625q-1.25 0 -2.5 0.859375q-1.234375 0.859375 -2.3125 2.234375q-1.0625 1.375 -1.859375 3.09375q-0.796875 1.71875 -1.140625 3.4375l-1.484375 7.40625l-3.40625 0l2.140625 -10.609375zm36.492188 9.28125q-1.875 0.765625 -3.734375 1.1875q-1.859375 0.421875 -3.8125 0.421875q-1.84375 0 -3.015625 -0.453125q-1.171875 -0.453125 -1.765625 -1.46875q-0.578125 -1.03125 -0.59375 -2.6875q-0.015625 -1.671875 0.453125 -4.078125l3.875 -19.1875l3.484375 0l-3.828125 19.1875q-0.359375 1.75 -0.453125 2.859375q-0.078125 1.109375 0.140625 1.765625q0.21875 0.640625 0.734375 0.890625q0.515625 0.25 1.375 0.25q1.4375 0 3.203125 -0.40625q1.78125 -0.40625 3.9375 -1.3125l0 3.03125zm13.2421875 1.6875q-3.515625 0 -5.484375 -1.8125q-1.953125 -1.8125 -1.953125 -5.421875q0 -1.625 0.34375 -3.21875q0.34375 -1.59375 1.0 -3.046875q0.671875 -1.453125 1.640625 -2.703125q0.984375 -1.25 2.25 -2.15625q1.265625 -0.921875 2.796875 -1.4375q1.546875 -0.53125 3.34375 -0.53125q1.75 0 3.125 0.46875q1.375 0.453125 2.328125 1.359375q0.953125 0.90625 1.453125 2.265625q0.515625 1.359375 0.515625 3.15625q0 1.609375 -0.34375 3.203125q-0.34375 1.578125 -1.015625 3.046875q-0.65625 1.453125 -1.640625 2.703125q-0.96875 1.25 -2.234375 2.171875q-1.25 0.90625 -2.796875 1.4375q-1.546875 0.515625 -3.328125 0.515625zm7.875 -12.71875q0 -2.375 -1.109375 -3.546875q-1.109375 -1.171875 -3.25 -1.171875q-1.203125 0 -2.25 0.421875q-1.03125 0.421875 -1.859375 1.15625q-0.828125 0.734375 -1.46875 1.703125q-0.625 0.96875 -1.046875 2.046875q-0.421875 1.078125 -0.640625 2.25q-0.203125 1.15625 -0.203125 2.25q0 2.359375 1.109375 3.546875q1.109375 1.1875 3.234375 1.1875q1.234375 0 2.25 -0.421875q1.03125 -0.421875 1.859375 -1.15625q0.84375 -0.734375 1.46875 -1.703125q0.640625 -0.96875 1.0625 -2.0625q0.421875 -1.09375 0.625 -2.25q0.21875 -1.15625 0.21875 -2.25zm18.164062 -7.484375q1.265625 0 2.421875 0.171875q1.15625 0.15625 2.203125 0.46875l3.09375 -0.765625l-2.203125 10.96875q-0.078125 0.359375 -0.171875 0.96875q-0.09375 0.609375 -0.21875 1.640625q-0.109375 1.015625 -0.28125 2.578125q-0.171875 1.546875 -0.40625 3.8125l-3.203125 0l0.484375 -4.515625q-1.34375 2.34375 -3.265625 3.609375q-1.921875 1.265625 -4.171875 1.265625q-1.40625 0 -2.453125 -0.46875q-1.046875 -0.484375 -1.734375 -1.34375q-0.671875 -0.875 -1.015625 -2.078125q-0.328125 -1.21875 -0.328125 -2.703125q0 -2.8125 0.734375 -5.28125q0.734375 -2.46875 2.15625 -4.328125q1.421875 -1.859375 3.515625 -2.921875q2.109375 -1.078125 4.84375 -1.078125zm-7.8125 13.28125q0 1.859375 0.640625 2.921875q0.65625 1.046875 2.09375 1.046875q0.84375 0 1.671875 -0.390625q0.84375 -0.390625 1.640625 -1.078125q0.8125 -0.6875 1.515625 -1.609375q0.71875 -0.9375 1.3125 -2.0q0.59375 -1.0625 1.015625 -2.21875q0.4375 -1.171875 0.671875 -2.3125l0.8125 -4.03125q-0.921875 -0.390625 -1.890625 -0.609375q-0.96875 -0.234375 -1.78125 -0.234375q-1.609375 0 -2.796875 0.546875q-1.1875 0.546875 -2.046875 1.4375q-0.859375 0.875 -1.40625 2.0q-0.546875 1.125 -0.875 2.296875q-0.328125 1.171875 -0.453125 2.28125q-0.125 1.109375 -0.125 1.953125zm29.804688 -13.28125q1.40625 0 2.375 0.125q0.96875 0.109375 1.828125 0.359375l1.640625 -8.234375l3.390625 0l-3.71875 18.59375q-0.078125 0.359375 -0.171875 0.96875q-0.09375 0.609375 -0.21875 1.640625q-0.109375 1.015625 -0.28125 2.578125q-0.171875 1.546875 -0.40625 3.8125l-3.203125 0l0.484375 -4.515625q-1.34375 2.34375 -3.265625 3.609375q-1.921875 1.265625 -4.171875 1.265625q-1.40625 0 -2.453125 -0.46875q-1.046875 -0.484375 -1.734375 -1.34375q-0.671875 -0.875 -1.015625 -2.078125q-0.328125 -1.21875 -0.328125 -2.703125q0 -2.8125 0.734375 -5.28125q0.734375 -2.46875 2.15625 -4.328125q1.421875 -1.859375 3.515625 -2.921875q2.109375 -1.078125 4.84375 -1.078125zm-7.8125 13.28125q0 1.859375 0.640625 2.921875q0.65625 1.046875 2.09375 1.046875q0.84375 0 1.671875 -0.390625q0.84375 -0.390625 1.640625 -1.078125q0.8125 -0.6875 1.515625 -1.609375q0.71875 -0.9375 1.3125 -2.0q0.59375 -1.0625 1.015625 -2.21875q0.4375 -1.171875 0.671875 -2.3125l0.8125 -4.03125q-0.921875 -0.390625 -1.890625 -0.609375q-0.96875 -0.234375 -1.78125 -0.234375q-1.609375 0 -2.796875 0.546875q-1.1875 0.546875 -2.046875 1.4375q-0.859375 0.875 -1.40625 2.0q-0.546875 1.125 -0.875 2.296875q-0.328125 1.171875 -0.453125 2.28125q-0.125 1.109375 -0.125 1.953125zm53.875 6.5625l2.75 -13.71875q0.21875 -1.0625 0.296875 -1.71875q0.078125 -0.671875 0.046875 -1.046875q-0.03125 -0.375 -0.15625 -0.5q-0.125 -0.140625 -0.34375 -0.140625q-0.390625 0 -0.90625 0.453125q-0.515625 0.4375 -1.09375 1.1875q-0.5625 0.734375 -1.125 1.703125q-0.5625 0.96875 -1.0625 2.015625q-0.5 1.046875 -0.875 2.078125q-0.375 1.015625 -0.53125 1.890625l-1.5625 7.796875l-3.125 0l2.765625 -13.71875q0.203125 -1.0625 0.28125 -1.71875q0.078125 -0.671875 0.046875 -1.046875q-0.015625 -0.375 -0.15625 -0.5q-0.125 -0.140625 -0.328125 -0.140625q-0.390625 0 -0.921875 0.453125q-0.515625 0.4375 -1.078125 1.1875q-0.5625 0.734375 -1.140625 1.703125q-0.578125 0.96875 -1.0625 2.015625q-0.484375 1.046875 -0.859375 2.078125q-0.375 1.015625 -0.546875 1.890625l-1.5625 7.796875l-3.109375 0l2.109375 -10.609375q0.078125 -0.375 0.15625 -0.96875q0.09375 -0.609375 0.21875 -1.625q0.140625 -1.03125 0.3125 -2.578125q0.171875 -1.5625 0.40625 -3.828125l2.90625 0l-0.484375 4.53125q0.546875 -1.0 1.125 -1.875q0.59375 -0.875 1.21875 -1.546875q0.640625 -0.6875 1.359375 -1.078125q0.734375 -0.390625 1.546875 -0.390625q1.0 0 1.65625 0.390625q0.65625 0.390625 0.953125 1.0625q0.3125 0.65625 0.265625 1.546875q-0.03125 0.890625 -0.421875 1.890625q0.546875 -1.0 1.109375 -1.875q0.578125 -0.875 1.21875 -1.546875q0.640625 -0.6875 1.359375 -1.078125q0.71875 -0.390625 1.546875 -0.390625q1.953125 0 2.625 1.484375q0.671875 1.46875 0.046875 4.59375l-2.75 13.890625l-3.125 0zm19.914062 -19.84375q1.265625 0 2.421875 0.171875q1.15625 0.15625 2.203125 0.46875l3.09375 -0.765625l-2.203125 10.96875q-0.078125 0.359375 -0.171875 0.96875q-0.09375 0.609375 -0.21875 1.640625q-0.109375 1.015625 -0.28125 2.578125q-0.171875 1.546875 -0.40625 3.8125l-3.203125 0l0.484375 -4.515625q-1.34375 2.34375 -3.265625 3.609375q-1.921875 1.265625 -4.171875 1.265625q-1.40625 0 -2.453125 -0.46875q-1.046875 -0.484375 -1.734375 -1.34375q-0.671875 -0.875 -1.015625 -2.078125q-0.328125 -1.21875 -0.328125 -2.703125q0 -2.8125 0.734375 -5.28125q0.734375 -2.46875 2.15625 -4.328125q1.421875 -1.859375 3.515625 -2.921875q2.109375 -1.078125 4.84375 -1.078125zm-7.8125 13.28125q0 1.859375 0.640625 2.921875q0.65625 1.046875 2.09375 1.046875q0.84375 0 1.671875 -0.390625q0.84375 -0.390625 1.640625 -1.078125q0.8125 -0.6875 1.515625 -1.609375q0.71875 -0.9375 1.3125 -2.0q0.59375 -1.0625 1.015625 -2.21875q0.4375 -1.171875 0.671875 -2.3125l0.8125 -4.03125q-0.921875 -0.390625 -1.890625 -0.609375q-0.96875 -0.234375 -1.78125 -0.234375q-1.609375 0 -2.796875 0.546875q-1.1875 0.546875 -2.046875 1.4375q-0.859375 0.875 -1.40625 2.0q-0.546875 1.125 -0.875 2.296875q-0.328125 1.171875 -0.453125 2.28125q-0.125 1.109375 -0.125 1.953125zm20.007812 -4.046875q0.078125 -0.375 0.15625 -0.96875q0.09375 -0.609375 0.203125 -1.625q0.125 -1.03125 0.296875 -2.578125q0.171875 -1.5625 0.40625 -3.828125l3.203125 0l-0.484375 4.53125q1.375 -2.359375 3.265625 -3.625q1.90625 -1.265625 4.140625 -1.265625q3.109375 0 4.40625 1.875q1.296875 1.875 0.546875 5.53125l-2.515625 12.5625l-3.390625 0l2.515625 -12.515625q0.484375 -2.390625 -0.078125 -3.453125q-0.546875 -1.0625 -2.109375 -1.0625q-1.25 0 -2.5 0.859375q-1.234375 0.859375 -2.3125 2.234375q-1.0625 1.375 -1.859375 3.09375q-0.796875 1.71875 -1.140625 3.4375l-1.484375 7.40625l-3.40625 0l2.140625 -10.609375zm29.351562 -14.4375q0 -0.59375 0.203125 -1.09375q0.21875 -0.515625 0.59375 -0.890625q0.390625 -0.375 0.890625 -0.578125q0.515625 -0.21875 1.109375 -0.21875q0.5625 0 1.03125 0.203125q0.46875 0.203125 0.8125 0.546875q0.34375 0.34375 0.515625 0.8125q0.1875 0.46875 0.1875 0.984375q0 0.609375 -0.21875 1.125q-0.203125 0.5 -0.59375 0.875q-0.375 0.375 -0.890625 0.59375q-0.5 0.203125 -1.078125 0.203125q-0.578125 0 -1.0625 -0.203125q-0.46875 -0.203125 -0.796875 -0.546875q-0.328125 -0.34375 -0.515625 -0.8125q-0.1875 -0.46875 -0.1875 -1.0zm8.0625 23.8125q-1.34375 0.75 -2.84375 1.171875q-1.484375 0.421875 -3.1875 0.421875q-1.390625 0 -2.328125 -0.390625q-0.9375 -0.40625 -1.4375 -1.25q-0.5 -0.84375 -0.5625 -2.171875q-0.046875 -1.328125 0.328125 -3.234375l1.328125 -6.5625q0.234375 -1.109375 0.21875 -1.859375q-0.015625 -0.75 -0.21875 -1.203125q-0.1875 -0.453125 -0.5625 -0.625q-0.375 -0.1875 -0.890625 -0.1875q-1.328125 0 -2.625 0.515625q-1.28125 0.515625 -2.609375 1.25l0 -3.0q1.34375 -0.75 2.84375 -1.171875q1.5 -0.4375 3.1875 -0.4375q1.390625 0 2.328125 0.390625q0.9375 0.390625 1.4375 1.25q0.5 0.84375 0.546875 2.171875q0.0625 1.328125 -0.296875 3.21875l-1.328125 6.5625q-0.21875 1.140625 -0.21875 1.890625q0 0.734375 0.203125 1.1875q0.203125 0.4375 0.578125 0.625q0.375 0.1875 0.875 0.1875q1.328125 0 2.609375 -0.515625q1.296875 -0.515625 2.625 -1.234375l0 3.0zm12.5546875 1.59375q-0.40625 2.03125 -1.15625 3.5q-0.734375 1.46875 -1.875 2.4375q-1.140625 0.96875 -2.71875 1.4375q-1.5625 0.46875 -3.640625 0.46875q-0.390625 0 -0.9375 -0.015625q-0.546875 -0.015625 -0.9375 -0.0625l0.546875 -2.921875q0.890625 0.109375 1.6875 0.109375q2.3125 0 3.703125 -1.1875q1.390625 -1.1875 1.890625 -3.765625l2.875 -14.28125l-6.3125 0l0.578125 -2.84375l6.296875 0l0.65625 -3.234375q0.78125 -3.890625 3.046875 -5.859375q2.265625 -1.96875 6.34375 -1.96875q1.03125 0 2.265625 0.125q1.25 0.109375 2.453125 0.34375l-0.59375 2.890625q-1.125 -0.265625 -2.25 -0.390625q-1.109375 -0.140625 -2.234375 -0.140625q-2.3125 0 -3.703125 1.25q-1.390625 1.25 -1.890625 3.75l-0.65625 3.234375l8.625 0l-0.578125 2.84375l-8.59375 0l-2.890625 14.28125zm-9.234375 -19.96875l0 0zm27.632812 10.890625q-0.09375 0.515625 -0.140625 0.96875q-0.046875 0.4375 -0.046875 0.875q0 2.125 1.265625 3.265625q1.265625 1.125 3.921875 1.125q1.71875 0 3.40625 -0.25q1.703125 -0.25 3.03125 -0.59375l0 2.796875q-1.46875 0.390625 -3.296875 0.640625q-1.828125 0.25 -3.703125 0.25q-4.140625 0 -6.109375 -1.84375q-1.96875 -1.859375 -1.96875 -5.359375q0 -2.6875 0.828125 -5.0625q0.84375 -2.390625 2.328125 -4.171875q1.484375 -1.796875 3.515625 -2.84375q2.046875 -1.046875 4.453125 -1.046875q1.65625 0 2.953125 0.390625q1.3125 0.390625 2.203125 1.078125q0.90625 0.6875 1.375 1.625q0.46875 0.921875 0.46875 1.984375q0 1.40625 -0.609375 2.546875q-0.59375 1.125 -1.890625 1.9375q-1.296875 0.8125 -3.34375 1.25q-2.046875 0.4375 -4.96875 0.4375l-3.671875 0zm3.640625 -2.609375q2.171875 0 3.578125 -0.265625q1.421875 -0.265625 2.25 -0.703125q0.828125 -0.453125 1.15625 -1.03125q0.34375 -0.59375 0.34375 -1.21875q0 -0.546875 -0.21875 -1.03125q-0.21875 -0.5 -0.6875 -0.859375q-0.453125 -0.375 -1.140625 -0.59375q-0.6875 -0.21875 -1.625 -0.21875q-1.28125 0 -2.328125 0.421875q-1.03125 0.421875 -1.875 1.203125q-0.84375 0.765625 -1.484375 1.859375q-0.640625 1.09375 -1.09375 2.4375l3.125 0zm31.679688 -5.0q-1.78125 -0.40625 -3.1875 -0.59375q-1.40625 -0.203125 -2.5 -0.203125q-1.34375 0 -2.3125 0.21875q-0.96875 0.203125 -1.59375 0.59375q-0.625 0.390625 -0.921875 0.953125q-0.28125 0.546875 -0.28125 1.234375q0 0.484375 0.21875 0.875q0.21875 0.375 0.703125 0.71875q0.5 0.34375 1.3125 0.671875q0.8125 0.328125 2.0 0.703125q1.421875 0.46875 2.421875 0.96875q1.015625 0.5 1.65625 1.125q0.640625 0.625 0.9375 1.390625q0.296875 0.75 0.296875 1.75q0 1.53125 -0.671875 2.703125q-0.65625 1.171875 -1.859375 1.96875q-1.1875 0.78125 -2.859375 1.203125q-1.65625 0.40625 -3.65625 0.40625q-1.875 0 -3.5625 -0.15625q-1.6875 -0.15625 -3.15625 -0.515625l0 -3.328125q1.765625 0.578125 3.5 0.859375q1.734375 0.265625 3.4375 0.265625q2.765625 0 4.03125 -0.78125q1.28125 -0.78125 1.28125 -2.421875q0 -0.4375 -0.203125 -0.796875q-0.1875 -0.359375 -0.65625 -0.671875q-0.46875 -0.328125 -1.296875 -0.65625q-0.8125 -0.34375 -2.078125 -0.71875q-1.171875 -0.34375 -2.140625 -0.78125q-0.96875 -0.4375 -1.671875 -1.046875q-0.703125 -0.625 -1.09375 -1.453125q-0.375 -0.828125 -0.375 -1.921875q0 -1.3125 0.53125 -2.4375q0.53125 -1.125 1.625 -1.953125q1.109375 -0.84375 2.78125 -1.328125q1.6875 -0.484375 3.96875 -0.484375q0.546875 0 1.203125 0.046875q0.65625 0.03125 1.359375 0.125q0.703125 0.09375 1.40625 0.21875q0.71875 0.109375 1.40625 0.265625l0 2.984375zm20.304688 16.046875q-1.21875 0.296875 -2.421875 0.421875q-1.203125 0.140625 -2.140625 0.140625q-2.0 0 -3.421875 -0.4375q-1.40625 -0.453125 -2.234375 -1.40625q-0.8125 -0.953125 -1.015625 -2.46875q-0.203125 -1.515625 0.25 -3.6875l1.796875 -9.046875l-5.5 0l0.578125 -2.84375l5.46875 0l1.09375 -5.390625l3.59375 -0.875l-1.296875 6.265625l8.8125 0l-0.5625 2.84375l-8.796875 0l-1.828125 9.171875q-0.28125 1.34375 -0.21875 2.296875q0.0625 0.9375 0.46875 1.546875q0.40625 0.609375 1.1875 0.890625q0.78125 0.265625 2.0 0.265625q0.71875 0 1.8125 -0.140625q1.09375 -0.15625 2.375 -0.46875l0 2.921875zm43.0 -1.40625l-2.40625 2.0l-11.09375 -11.078125l15.171875 -10.84375l1.84375 2.328125l-12.40625 8.71875l8.890625 8.875zm18.742188 -18.15625q1.40625 0 2.375 0.125q0.96875 0.109375 1.828125 0.359375l1.640625 -8.234375l3.390625 0l-3.71875 18.59375q-0.078125 0.359375 -0.171875 0.96875q-0.09375 0.609375 -0.21875 1.640625q-0.109375 1.015625 -0.28125 2.578125q-0.171875 1.546875 -0.40625 3.8125l-3.203125 0l0.484375 -4.515625q-1.34375 2.34375 -3.265625 3.609375q-1.921875 1.265625 -4.171875 1.265625q-1.40625 0 -2.453125 -0.46875q-1.046875 -0.484375 -1.734375 -1.34375q-0.671875 -0.875 -1.015625 -2.078125q-0.328125 -1.21875 -0.328125 -2.703125q0 -2.8125 0.734375 -5.28125q0.734375 -2.46875 2.15625 -4.328125q1.421875 -1.859375 3.515625 -2.921875q2.109375 -1.078125 4.84375 -1.078125zm-7.8125 13.28125q0 1.859375 0.640625 2.921875q0.65625 1.046875 2.09375 1.046875q0.84375 0 1.671875 -0.390625q0.84375 -0.390625 1.640625 -1.078125q0.8125 -0.6875 1.515625 -1.609375q0.71875 -0.9375 1.3125 -2.0q0.59375 -1.0625 1.015625 -2.21875q0.4375 -1.171875 0.671875 -2.3125l0.8125 -4.03125q-0.921875 -0.390625 -1.890625 -0.609375q-0.96875 -0.234375 -1.78125 -0.234375q-1.609375 0 -2.796875 0.546875q-1.1875 0.546875 -2.046875 1.4375q-0.859375 0.875 -1.40625 2.0q-0.546875 1.125 -0.875 2.296875q-0.328125 1.171875 -0.453125 2.28125q-0.125 1.109375 -0.125 1.953125zm22.398438 -2.15625q-0.09375 0.515625 -0.140625 0.96875q-0.046875 0.4375 -0.046875 0.875q0 2.125 1.265625 3.265625q1.265625 1.125 3.921875 1.125q1.71875 0 3.40625 -0.25q1.703125 -0.25 3.03125 -0.59375l0 2.796875q-1.46875 0.390625 -3.296875 0.640625q-1.828125 0.25 -3.703125 0.25q-4.140625 0 -6.109375 -1.84375q-1.96875 -1.859375 -1.96875 -5.359375q0 -2.6875 0.828125 -5.0625q0.84375 -2.390625 2.328125 -4.171875q1.484375 -1.796875 3.515625 -2.84375q2.046875 -1.046875 4.453125 -1.046875q1.65625 0 2.953125 0.390625q1.3125 0.390625 2.203125 1.078125q0.90625 0.6875 1.375 1.625q0.46875 0.921875 0.46875 1.984375q0 1.40625 -0.609375 2.546875q-0.59375 1.125 -1.890625 1.9375q-1.296875 0.8125 -3.34375 1.25q-2.046875 0.4375 -4.96875 0.4375l-3.671875 0zm3.640625 -2.609375q2.171875 0 3.578125 -0.265625q1.421875 -0.265625 2.25 -0.703125q0.828125 -0.453125 1.15625 -1.03125q0.34375 -0.59375 0.34375 -1.21875q0 -0.546875 -0.21875 -1.03125q-0.21875 -0.5 -0.6875 -0.859375q-0.453125 -0.375 -1.140625 -0.59375q-0.6875 -0.21875 -1.625 -0.21875q-1.28125 0 -2.328125 0.421875q-1.03125 0.421875 -1.875 1.203125q-0.84375 0.765625 -1.484375 1.859375q-0.640625 1.09375 -1.09375 2.4375l3.125 0zm21.601562 11.5625q-1.421875 0 -2.390625 -0.125q-0.96875 -0.109375 -1.8125 -0.34375l-1.640625 8.25l-3.40625 0l3.71875 -18.625q0.078125 -0.375 0.15625 -0.96875q0.09375 -0.609375 0.21875 -1.625q0.140625 -1.03125 0.296875 -2.578125q0.171875 -1.5625 0.40625 -3.828125l3.203125 0l-0.46875 4.53125q1.34375 -2.359375 3.25 -3.625q1.921875 -1.265625 4.1875 -1.265625q1.40625 0 2.4375 0.484375q1.046875 0.484375 1.71875 1.34375q0.6875 0.859375 1.015625 2.078125q0.34375 1.21875 0.34375 2.703125q0 2.8125 -0.734375 5.28125q-0.734375 2.46875 -2.171875 4.3125q-1.421875 1.84375 -3.515625 2.921875q-2.09375 1.078125 -4.8125 1.078125zm7.796875 -13.28125q0 -1.875 -0.640625 -2.90625q-0.640625 -1.046875 -2.078125 -1.046875q-0.84375 0 -1.6875 0.390625q-0.828125 0.390625 -1.640625 1.078125q-0.796875 0.6875 -1.515625 1.625q-0.71875 0.921875 -1.3125 1.984375q-0.578125 1.0625 -1.03125 2.21875q-0.4375 1.140625 -0.671875 2.296875l-0.796875 4.046875q0.921875 0.390625 1.890625 0.625q0.984375 0.21875 1.796875 0.21875q1.609375 0 2.796875 -0.546875q1.1875 -0.546875 2.03125 -1.421875q0.859375 -0.890625 1.40625 -2.015625q0.546875 -1.140625 0.859375 -2.3125q0.328125 -1.171875 0.453125 -2.265625q0.140625 -1.109375 0.140625 -1.96875zm23.054688 11.71875q-1.875 0.765625 -3.734375 1.1875q-1.859375 0.421875 -3.8125 0.421875q-1.84375 0 -3.015625 -0.453125q-1.171875 -0.453125 -1.765625 -1.46875q-0.578125 -1.03125 -0.59375 -2.6875q-0.015625 -1.671875 0.453125 -4.078125l3.875 -19.1875l3.484375 0l-3.828125 19.1875q-0.359375 1.75 -0.453125 2.859375q-0.078125 1.109375 0.140625 1.765625q0.21875 0.640625 0.734375 0.890625q0.515625 0.25 1.375 0.25q1.4375 0 3.203125 -0.40625q1.78125 -0.40625 3.9375 -1.3125l0 3.03125zm13.2421875 1.6875q-3.515625 0 -5.484375 -1.8125q-1.953125 -1.8125 -1.953125 -5.421875q0 -1.625 0.34375 -3.21875q0.34375 -1.59375 1.0 -3.046875q0.671875 -1.453125 1.640625 -2.703125q0.984375 -1.25 2.25 -2.15625q1.265625 -0.921875 2.796875 -1.4375q1.546875 -0.53125 3.34375 -0.53125q1.75 0 3.125 0.46875q1.375 0.453125 2.328125 1.359375q0.953125 0.90625 1.453125 2.265625q0.515625 1.359375 0.515625 3.15625q0 1.609375 -0.34375 3.203125q-0.34375 1.578125 -1.015625 3.046875q-0.65625 1.453125 -1.640625 2.703125q-0.96875 1.25 -2.234375 2.171875q-1.25 0.90625 -2.796875 1.4375q-1.546875 0.515625 -3.328125 0.515625zm7.875 -12.71875q0 -2.375 -1.109375 -3.546875q-1.109375 -1.171875 -3.25 -1.171875q-1.203125 0 -2.25 0.421875q-1.03125 0.421875 -1.859375 1.15625q-0.828125 0.734375 -1.46875 1.703125q-0.625 0.96875 -1.046875 2.046875q-0.421875 1.078125 -0.640625 2.25q-0.203125 1.15625 -0.203125 2.25q0 2.359375 1.109375 3.546875q1.109375 1.1875 3.234375 1.1875q1.234375 0 2.25 -0.421875q1.03125 -0.421875 1.859375 -1.15625q0.84375 -0.734375 1.46875 -1.703125q0.640625 -0.96875 1.0625 -2.0625q0.421875 -1.09375 0.625 -2.25q0.21875 -1.15625 0.21875 -2.25zm19.164062 8.4375q-1.71875 2.453125 -3.15625 4.296875q-1.421875 1.859375 -2.640625 3.203125q-1.21875 1.34375 -2.28125 2.203125q-1.0625 0.875 -2.0625 1.40625q-1.0 0.53125 -1.984375 0.734375q-0.96875 0.203125 -2.0 0.203125q-0.515625 0 -0.953125 -0.03125q-0.453125 -0.03125 -1.046875 -0.078125l0 -3.09375q0.53125 0.09375 1.109375 0.140625q0.5625 0.0625 1.125 0.0625q0.9375 0 1.765625 -0.28125q0.828125 -0.265625 1.65625 -0.890625q0.84375 -0.609375 1.703125 -1.59375q0.875 -0.96875 1.890625 -2.359375l-3.96875 -19.609375l3.671875 0l2.5625 12.96875l0.484375 3.359375q1.421875 -2.046875 2.46875 -3.75q1.046875 -1.71875 1.796875 -3.15625q0.75 -1.453125 1.234375 -2.6875q0.484375 -1.25 0.78125 -2.375q0.296875 -1.125 0.453125 -2.1875q0.15625 -1.0625 0.265625 -2.171875l3.71875 0q-0.234375 1.90625 -0.640625 3.65625q-0.390625 1.75 -1.140625 3.578125q-0.734375 1.828125 -1.90625 3.875q-1.15625 2.046875 -2.90625 4.578125zm23.070312 3.921875l2.75 -13.71875q0.21875 -1.0625 0.296875 -1.71875q0.078125 -0.671875 0.046875 -1.046875q-0.03125 -0.375 -0.15625 -0.5q-0.125 -0.140625 -0.34375 -0.140625q-0.390625 0 -0.90625 0.453125q-0.515625 0.4375 -1.09375 1.1875q-0.5625 0.734375 -1.125 1.703125q-0.5625 0.96875 -1.0625 2.015625q-0.5 1.046875 -0.875 2.078125q-0.375 1.015625 -0.53125 1.890625l-1.5625 7.796875l-3.125 0l2.765625 -13.71875q0.203125 -1.0625 0.28125 -1.71875q0.078125 -0.671875 0.046875 -1.046875q-0.015625 -0.375 -0.15625 -0.5q-0.125 -0.140625 -0.328125 -0.140625q-0.390625 0 -0.921875 0.453125q-0.515625 0.4375 -1.078125 1.1875q-0.5625 0.734375 -1.140625 1.703125q-0.578125 0.96875 -1.0625 2.015625q-0.484375 1.046875 -0.859375 2.078125q-0.375 1.015625 -0.546875 1.890625l-1.5625 7.796875l-3.109375 0l2.109375 -10.609375q0.078125 -0.375 0.15625 -0.96875q0.09375 -0.609375 0.21875 -1.625q0.140625 -1.03125 0.3125 -2.578125q0.171875 -1.5625 0.40625 -3.828125l2.90625 0l-0.484375 4.53125q0.546875 -1.0 1.125 -1.875q0.59375 -0.875 1.21875 -1.546875q0.640625 -0.6875 1.359375 -1.078125q0.734375 -0.390625 1.546875 -0.390625q1.0 0 1.65625 0.390625q0.65625 0.390625 0.953125 1.0625q0.3125 0.65625 0.265625 1.546875q-0.03125 0.890625 -0.421875 1.890625q0.546875 -1.0 1.109375 -1.875q0.578125 -0.875 1.21875 -1.546875q0.640625 -0.6875 1.359375 -1.078125q0.71875 -0.390625 1.546875 -0.390625q1.953125 0 2.625 1.484375q0.671875 1.46875 0.046875 4.59375l-2.75 13.890625l-3.125 0zm12.5078125 -8.71875q-0.09375 0.515625 -0.140625 0.96875q-0.046875 0.4375 -0.046875 0.875q0 2.125 1.265625 3.265625q1.265625 1.125 3.921875 1.125q1.71875 0 3.40625 -0.25q1.703125 -0.25 3.03125 -0.59375l0 2.796875q-1.46875 0.390625 -3.296875 0.640625q-1.828125 0.25 -3.703125 0.25q-4.140625 0 -6.109375 -1.84375q-1.96875 -1.859375 -1.96875 -5.359375q0 -2.6875 0.828125 -5.0625q0.84375 -2.390625 2.328125 -4.171875q1.484375 -1.796875 3.515625 -2.84375q2.046875 -1.046875 4.453125 -1.046875q1.65625 0 2.953125 0.390625q1.3125 0.390625 2.203125 1.078125q0.90625 0.6875 1.375 1.625q0.46875 0.921875 0.46875 1.984375q0 1.40625 -0.609375 2.546875q-0.59375 1.125 -1.890625 1.9375q-1.296875 0.8125 -3.34375 1.25q-2.046875 0.4375 -4.96875 0.4375l-3.671875 0zm3.640625 -2.609375q2.171875 0 3.578125 -0.265625q1.421875 -0.265625 2.25 -0.703125q0.828125 -0.453125 1.15625 -1.03125q0.34375 -0.59375 0.34375 -1.21875q0 -0.546875 -0.21875 -1.03125q-0.21875 -0.5 -0.6875 -0.859375q-0.453125 -0.375 -1.140625 -0.59375q-0.6875 -0.21875 -1.625 -0.21875q-1.28125 0 -2.328125 0.421875q-1.03125 0.421875 -1.875 1.203125q-0.84375 0.765625 -1.484375 1.859375q-0.640625 1.09375 -1.09375 2.4375l3.125 0zm15.9609375 0.71875q0.078125 -0.375 0.15625 -0.96875q0.09375 -0.609375 0.203125 -1.625q0.125 -1.03125 0.296875 -2.578125q0.171875 -1.5625 0.40625 -3.828125l3.203125 0l-0.484375 4.53125q1.375 -2.359375 3.265625 -3.625q1.90625 -1.265625 4.140625 -1.265625q3.109375 0 4.40625 1.875q1.296875 1.875 0.546875 5.53125l-2.515625 12.5625l-3.390625 0l2.515625 -12.515625q0.484375 -2.390625 -0.078125 -3.453125q-0.546875 -1.0625 -2.109375 -1.0625q-1.25 0 -2.5 0.859375q-1.234375 0.859375 -2.3125 2.234375q-1.0625 1.375 -1.859375 3.09375q-0.796875 1.71875 -1.140625 3.4375l-1.484375 7.40625l-3.40625 0l2.140625 -10.609375zm36.023438 10.328125q-1.21875 0.296875 -2.421875 0.421875q-1.203125 0.140625 -2.140625 0.140625q-2.0 0 -3.421875 -0.4375q-1.40625 -0.453125 -2.234375 -1.40625q-0.8125 -0.953125 -1.015625 -2.46875q-0.203125 -1.515625 0.25 -3.6875l1.796875 -9.046875l-5.5 0l0.578125 -2.84375l5.46875 0l1.09375 -5.390625l3.59375 -0.875l-1.296875 6.265625l8.8125 0l-0.5625 2.84375l-8.796875 0l-1.828125 9.171875q-0.28125 1.34375 -0.21875 2.296875q0.0625 0.9375 0.46875 1.546875q0.40625 0.609375 1.1875 0.890625q0.78125 0.265625 2.0 0.265625q0.71875 0 1.8125 -0.140625q1.09375 -0.15625 2.375 -0.46875l0 2.921875zm21.351562 -8.765625l-11.671875 0l0.640625 -3.203125l11.671875 0l-0.640625 3.203125z" fill-rule="nonzero"></path><path fill="#ffffff" d="m108.25 266.79062q0.078125 -0.375 0.15625 -0.96875q0.09375 -0.609375 0.203125 -1.625q0.125 -1.03125 0.296875 -2.578125q0.171875 -1.5625 0.40625 -3.828125l3.203125 0l-0.484375 4.53125q1.375 -2.359375 3.265625 -3.625q1.90625 -1.265625 4.140625 -1.265625q3.109375 0 4.40625 1.875q1.296875 1.875 0.546875 5.53125l-2.515625 12.5625l-3.390625 0l2.515625 -12.515625q0.484375 -2.390625 -0.078125 -3.453125q-0.546875 -1.0625 -2.109375 -1.0625q-1.25 0 -2.5 0.859375q-1.234375 0.859375 -2.3125 2.234375q-1.0625 1.375 -1.859375 3.09375q-0.796875 1.71875 -1.140625 3.4375l-1.484375 7.40625l-3.40625 0l2.140625 -10.609375zm31.789062 -9.234375q1.265625 0 2.421875 0.171875q1.15625 0.15625 2.203125 0.46875l3.09375 -0.765625l-2.203125 10.96875q-0.078125 0.359375 -0.171875 0.96875q-0.09375 0.609375 -0.21875 1.640625q-0.109375 1.015625 -0.28125 2.578125q-0.171875 1.546875 -0.40625 3.8125l-3.203125 0l0.484375 -4.515625q-1.34375 2.34375 -3.265625 3.609375q-1.921875 1.265625 -4.171875 1.265625q-1.40625 0 -2.453125 -0.46875q-1.046875 -0.484375 -1.734375 -1.34375q-0.671875 -0.875 -1.015625 -2.078125q-0.328125 -1.21875 -0.328125 -2.703125q0 -2.8125 0.734375 -5.28125q0.734375 -2.46875 2.15625 -4.328125q1.421875 -1.859375 3.515625 -2.921875q2.109375 -1.078125 4.84375 -1.078125zm-7.8125 13.28125q0 1.859375 0.640625 2.921875q0.65625 1.046875 2.09375 1.046875q0.84375 0 1.671875 -0.390625q0.84375 -0.390625 1.640625 -1.078125q0.8125 -0.6875 1.515625 -1.609375q0.71875 -0.9375 1.3125 -2.0q0.59375 -1.0625 1.015625 -2.21875q0.4375 -1.171875 0.671875 -2.3125l0.8125 -4.03125q-0.921875 -0.390625 -1.890625 -0.609375q-0.96875 -0.234375 -1.78125 -0.234375q-1.609375 0 -2.796875 0.546875q-1.1875 0.546875 -2.046875 1.4375q-0.859375 0.875 -1.40625 2.0q-0.546875 1.125 -0.875 2.296875q-0.328125 1.171875 -0.453125 2.28125q-0.125 1.109375 -0.125 1.953125zm31.882812 6.5625l2.75 -13.71875q0.21875 -1.0625 0.296875 -1.71875q0.078125 -0.671875 0.046875 -1.046875q-0.03125 -0.375 -0.15625 -0.5q-0.125 -0.140625 -0.34375 -0.140625q-0.390625 0 -0.90625 0.453125q-0.515625 0.4375 -1.09375 1.1875q-0.5625 0.734375 -1.125 1.703125q-0.5625 0.96875 -1.0625 2.015625q-0.5 1.046875 -0.875 2.078125q-0.375 1.015625 -0.53125 1.890625l-1.5625 7.796875l-3.125 0l2.765625 -13.71875q0.203125 -1.0625 0.28125 -1.71875q0.078125 -0.671875 0.046875 -1.046875q-0.015625 -0.375 -0.15625 -0.5q-0.125 -0.140625 -0.328125 -0.140625q-0.390625 0 -0.921875 0.453125q-0.515625 0.4375 -1.078125 1.1875q-0.5625 0.734375 -1.140625 1.703125q-0.578125 0.96875 -1.0625 2.015625q-0.484375 1.046875 -0.859375 2.078125q-0.375 1.015625 -0.546875 1.890625l-1.5625 7.796875l-3.109375 0l2.109375 -10.609375q0.078125 -0.375 0.15625 -0.96875q0.09375 -0.609375 0.21875 -1.625q0.140625 -1.03125 0.3125 -2.578125q0.171875 -1.5625 0.40625 -3.828125l2.90625 0l-0.484375 4.53125q0.546875 -1.0 1.125 -1.875q0.59375 -0.875 1.21875 -1.546875q0.640625 -0.6875 1.359375 -1.078125q0.734375 -0.390625 1.546875 -0.390625q1.0 0 1.65625 0.390625q0.65625 0.390625 0.953125 1.0625q0.3125 0.65625 0.265625 1.546875q-0.03125 0.890625 -0.421875 1.890625q0.546875 -1.0 1.109375 -1.875q0.578125 -0.875 1.21875 -1.546875q0.640625 -0.6875 1.359375 -1.078125q0.71875 -0.390625 1.546875 -0.390625q1.953125 0 2.625 1.484375q0.671875 1.46875 0.046875 4.59375l-2.75 13.890625l-3.125 0zm12.5078125 -8.71875q-0.09375 0.515625 -0.140625 0.96875q-0.046875 0.4375 -0.046875 0.875q0 2.125 1.265625 3.265625q1.265625 1.125 3.921875 1.125q1.71875 0 3.40625 -0.25q1.703125 -0.25 3.03125 -0.59375l0 2.796875q-1.46875 0.390625 -3.296875 0.640625q-1.828125 0.25 -3.703125 0.25q-4.140625 0 -6.109375 -1.84375q-1.96875 -1.859375 -1.96875 -5.359375q0 -2.6875 0.828125 -5.0625q0.84375 -2.390625 2.328125 -4.171875q1.484375 -1.796875 3.515625 -2.84375q2.046875 -1.046875 4.453125 -1.046875q1.65625 0 2.953125 0.390625q1.3125 0.390625 2.203125 1.078125q0.90625 0.6875 1.375 1.625q0.46875 0.921875 0.46875 1.984375q0 1.40625 -0.609375 2.546875q-0.59375 1.125 -1.890625 1.9375q-1.296875 0.8125 -3.34375 1.25q-2.046875 0.4375 -4.96875 0.4375l-3.671875 0zm3.640625 -2.609375q2.171875 0 3.578125 -0.265625q1.421875 -0.265625 2.25 -0.703125q0.828125 -0.453125 1.15625 -1.03125q0.34375 -0.59375 0.34375 -1.21875q0 -0.546875 -0.21875 -1.03125q-0.21875 -0.5 -0.6875 -0.859375q-0.453125 -0.375 -1.140625 -0.59375q-0.6875 -0.21875 -1.625 -0.21875q-1.28125 0 -2.328125 0.421875q-1.03125 0.421875 -1.875 1.203125q-0.84375 0.765625 -1.484375 1.859375q-0.640625 1.09375 -1.09375 2.4375l3.125 0zm18.664062 -8.28125l2.40625 -2.0l11.078125 11.078125l-15.15625 10.84375l-1.84375 -2.3125l12.40625 -8.71875l-8.890625 -8.890625zm59.21875 6.015625q-0.03125 1.484375 -0.453125 2.75q-0.421875 1.25 -1.1875 2.171875q-0.75 0.921875 -1.859375 1.4375q-1.109375 0.515625 -2.53125 0.515625q-1.078125 0 -1.921875 -0.359375q-0.84375 -0.359375 -1.546875 -0.90625q-0.703125 -0.546875 -1.3125 -1.1875q-0.59375 -0.65625 -1.15625 -1.203125q-0.5625 -0.546875 -1.140625 -0.90625q-0.578125 -0.359375 -1.234375 -0.359375q-1.15625 0 -1.828125 0.921875q-0.65625 0.90625 -0.8125 2.890625l-3.125 0q0.078125 -1.484375 0.5 -2.75q0.4375 -1.265625 1.1875 -2.1875q0.75 -0.921875 1.8125 -1.4375q1.0625 -0.53125 2.453125 -0.53125q1.078125 0 1.921875 0.375q0.859375 0.359375 1.5625 0.90625q0.71875 0.546875 1.3125 1.1875q0.609375 0.640625 1.171875 1.1875q0.578125 0.546875 1.15625 0.90625q0.578125 0.359375 1.234375 0.359375q1.3125 0 1.9375 -0.890625q0.625 -0.90625 0.734375 -2.890625l3.125 0zm23.320312 -14.0l-19.796875 31.796875l-3.484375 0l19.8125 -31.796875l3.46875 0zm12.5234375 7.75q1.40625 0 2.375 0.125q0.96875 0.109375 1.828125 0.359375l1.640625 -8.234375l3.390625 0l-3.71875 18.59375q-0.078125 0.359375 -0.171875 0.96875q-0.09375 0.609375 -0.21875 1.640625q-0.109375 1.015625 -0.28125 2.578125q-0.171875 1.546875 -0.40625 3.8125l-3.203125 0l0.484375 -4.515625q-1.34375 2.34375 -3.265625 3.609375q-1.921875 1.265625 -4.171875 1.265625q-1.40625 0 -2.453125 -0.46875q-1.046875 -0.484375 -1.734375 -1.34375q-0.671875 -0.875 -1.015625 -2.078125q-0.328125 -1.21875 -0.328125 -2.703125q0 -2.8125 0.734375 -5.28125q0.734375 -2.46875 2.15625 -4.328125q1.421875 -1.859375 3.515625 -2.921875q2.109375 -1.078125 4.84375 -1.078125zm-7.8125 13.28125q0 1.859375 0.640625 2.921875q0.65625 1.046875 2.09375 1.046875q0.84375 0 1.671875 -0.390625q0.84375 -0.390625 1.640625 -1.078125q0.8125 -0.6875 1.515625 -1.609375q0.71875 -0.9375 1.3125 -2.0q0.59375 -1.0625 1.015625 -2.21875q0.4375 -1.171875 0.671875 -2.3125l0.8125 -4.03125q-0.921875 -0.390625 -1.890625 -0.609375q-0.96875 -0.234375 -1.78125 -0.234375q-1.609375 0 -2.796875 0.546875q-1.1875 0.546875 -2.046875 1.4375q-0.859375 0.875 -1.40625 2.0q-0.546875 1.125 -0.875 2.296875q-0.328125 1.171875 -0.453125 2.28125q-0.125 1.109375 -0.125 1.953125zm35.429688 -2.4375q-0.078125 0.359375 -0.171875 0.96875q-0.078125 0.609375 -0.203125 1.640625q-0.109375 1.015625 -0.296875 2.578125q-0.171875 1.546875 -0.40625 3.8125l-3.203125 0l0.5 -4.515625q-1.359375 2.34375 -3.265625 3.609375q-1.890625 1.265625 -4.140625 1.265625q-3.109375 0 -4.40625 -1.875q-1.296875 -1.890625 -0.5625 -5.515625l2.53125 -12.578125l3.390625 0l-2.515625 12.53125q-0.484375 2.375 0.0625 3.453125q0.5625 1.0625 2.140625 1.0625q0.84375 0 1.671875 -0.390625q0.828125 -0.390625 1.609375 -1.078125q0.796875 -0.703125 1.515625 -1.625q0.71875 -0.921875 1.3125 -2.0q0.59375 -1.078125 1.015625 -2.234375q0.4375 -1.171875 0.671875 -2.3125l1.484375 -7.40625l3.390625 0l-2.125 10.609375zm18.445312 9.0l2.75 -13.71875q0.21875 -1.0625 0.296875 -1.71875q0.078125 -0.671875 0.046875 -1.046875q-0.03125 -0.375 -0.15625 -0.5q-0.125 -0.140625 -0.34375 -0.140625q-0.390625 0 -0.90625 0.453125q-0.515625 0.4375 -1.09375 1.1875q-0.5625 0.734375 -1.125 1.703125q-0.5625 0.96875 -1.0625 2.015625q-0.5 1.046875 -0.875 2.078125q-0.375 1.015625 -0.53125 1.890625l-1.5625 7.796875l-3.125 0l2.765625 -13.71875q0.203125 -1.0625 0.28125 -1.71875q0.078125 -0.671875 0.046875 -1.046875q-0.015625 -0.375 -0.15625 -0.5q-0.125 -0.140625 -0.328125 -0.140625q-0.390625 0 -0.921875 0.453125q-0.515625 0.4375 -1.078125 1.1875q-0.5625 0.734375 -1.140625 1.703125q-0.578125 0.96875 -1.0625 2.015625q-0.484375 1.046875 -0.859375 2.078125q-0.375 1.015625 -0.546875 1.890625l-1.5625 7.796875l-3.109375 0l2.109375 -10.609375q0.078125 -0.375 0.15625 -0.96875q0.09375 -0.609375 0.21875 -1.625q0.140625 -1.03125 0.3125 -2.578125q0.171875 -1.5625 0.40625 -3.828125l2.90625 0l-0.484375 4.53125q0.546875 -1.0 1.125 -1.875q0.59375 -0.875 1.21875 -1.546875q0.640625 -0.6875 1.359375 -1.078125q0.734375 -0.390625 1.546875 -0.390625q1.0 0 1.65625 0.390625q0.65625 0.390625 0.953125 1.0625q0.3125 0.65625 0.265625 1.546875q-0.03125 0.890625 -0.421875 1.890625q0.546875 -1.0 1.109375 -1.875q0.578125 -0.875 1.21875 -1.546875q0.640625 -0.6875 1.359375 -1.078125q0.71875 -0.390625 1.546875 -0.390625q1.953125 0 2.625 1.484375q0.671875 1.46875 0.046875 4.59375l-2.75 13.890625l-3.125 0zm21.992188 0l2.75 -13.71875q0.21875 -1.0625 0.296875 -1.71875q0.078125 -0.671875 0.046875 -1.046875q-0.03125 -0.375 -0.15625 -0.5q-0.125 -0.140625 -0.34375 -0.140625q-0.390625 0 -0.90625 0.453125q-0.515625 0.4375 -1.09375 1.1875q-0.5625 0.734375 -1.125 1.703125q-0.5625 0.96875 -1.0625 2.015625q-0.5 1.046875 -0.875 2.078125q-0.375 1.015625 -0.53125 1.890625l-1.5625 7.796875l-3.125 0l2.765625 -13.71875q0.203125 -1.0625 0.28125 -1.71875q0.078125 -0.671875 0.046875 -1.046875q-0.015625 -0.375 -0.15625 -0.5q-0.125 -0.140625 -0.328125 -0.140625q-0.390625 0 -0.921875 0.453125q-0.515625 0.4375 -1.078125 1.1875q-0.5625 0.734375 -1.140625 1.703125q-0.578125 0.96875 -1.0625 2.015625q-0.484375 1.046875 -0.859375 2.078125q-0.375 1.015625 -0.546875 1.890625l-1.5625 7.796875l-3.109375 0l2.109375 -10.609375q0.078125 -0.375 0.15625 -0.96875q0.09375 -0.609375 0.21875 -1.625q0.140625 -1.03125 0.3125 -2.578125q0.171875 -1.5625 0.40625 -3.828125l2.90625 0l-0.484375 4.53125q0.546875 -1.0 1.125 -1.875q0.59375 -0.875 1.21875 -1.546875q0.640625 -0.6875 1.359375 -1.078125q0.734375 -0.390625 1.546875 -0.390625q1.0 0 1.65625 0.390625q0.65625 0.390625 0.953125 1.0625q0.3125 0.65625 0.265625 1.546875q-0.03125 0.890625 -0.421875 1.890625q0.546875 -1.0 1.109375 -1.875q0.578125 -0.875 1.21875 -1.546875q0.640625 -0.6875 1.359375 -1.078125q0.71875 -0.390625 1.546875 -0.390625q1.953125 0 2.625 1.484375q0.671875 1.46875 0.046875 4.59375l-2.75 13.890625l-3.125 0zm20.914062 -3.921875q-1.71875 2.453125 -3.15625 4.296875q-1.421875 1.859375 -2.640625 3.203125q-1.21875 1.34375 -2.28125 2.203125q-1.0625 0.875 -2.0625 1.40625q-1.0 0.53125 -1.984375 0.734375q-0.96875 0.203125 -2.0 0.203125q-0.515625 0 -0.953125 -0.03125q-0.453125 -0.03125 -1.046875 -0.078125l0 -3.09375q0.53125 0.09375 1.109375 0.140625q0.5625 0.0625 1.125 0.0625q0.9375 0 1.765625 -0.28125q0.828125 -0.265625 1.65625 -0.890625q0.84375 -0.609375 1.703125 -1.59375q0.875 -0.96875 1.890625 -2.359375l-3.96875 -19.609375l3.671875 0l2.5625 12.96875l0.484375 3.359375q1.421875 -2.046875 2.46875 -3.75q1.046875 -1.71875 1.796875 -3.15625q0.75 -1.453125 1.234375 -2.6875q0.484375 -1.25 0.78125 -2.375q0.296875 -1.125 0.453125 -2.1875q0.15625 -1.0625 0.265625 -2.171875l3.71875 0q-0.234375 1.90625 -0.640625 3.65625q-0.390625 1.75 -1.140625 3.578125q-0.734375 1.828125 -1.90625 3.875q-1.15625 2.046875 -2.90625 4.578125zm17.460938 -2.234375q0.703125 0 1.28125 0.265625q0.578125 0.25 0.984375 0.6875q0.40625 0.421875 0.625 1.0q0.234375 0.5625 0.234375 1.1875q0 0.703125 -0.28125 1.328125q-0.265625 0.609375 -0.734375 1.078125q-0.453125 0.453125 -1.078125 0.703125q-0.609375 0.265625 -1.265625 0.265625q-0.6875 0 -1.25 -0.265625q-0.5625 -0.25 -0.984375 -0.671875q-0.421875 -0.4375 -0.65625 -0.984375q-0.234375 -0.5625 -0.234375 -1.1875q0 -0.734375 0.265625 -1.359375q0.28125 -0.625 0.75 -1.0625q0.46875 -0.453125 1.0625 -0.71875q0.609375 -0.265625 1.28125 -0.265625zm26.523438 2.234375q-1.71875 2.453125 -3.15625 4.296875q-1.421875 1.859375 -2.640625 3.203125q-1.21875 1.34375 -2.28125 2.203125q-1.0625 0.875 -2.0625 1.40625q-1.0 0.53125 -1.984375 0.734375q-0.96875 0.203125 -2.0 0.203125q-0.515625 0 -0.953125 -0.03125q-0.453125 -0.03125 -1.046875 -0.078125l0 -3.09375q0.53125 0.09375 1.109375 0.140625q0.5625 0.0625 1.125 0.0625q0.9375 0 1.765625 -0.28125q0.828125 -0.265625 1.65625 -0.890625q0.84375 -0.609375 1.703125 -1.59375q0.875 -0.96875 1.890625 -2.359375l-3.96875 -19.609375l3.671875 0l2.5625 12.96875l0.484375 3.359375q1.421875 -2.046875 2.46875 -3.75q1.046875 -1.71875 1.796875 -3.15625q0.75 -1.453125 1.234375 -2.6875q0.484375 -1.25 0.78125 -2.375q0.296875 -1.125 0.453125 -2.1875q0.15625 -1.0625 0.265625 -2.171875l3.71875 0q-0.234375 1.90625 -0.640625 3.65625q-0.390625 1.75 -1.140625 3.578125q-0.734375 1.828125 -1.90625 3.875q-1.15625 2.046875 -2.90625 4.578125zm23.070312 3.921875l2.75 -13.71875q0.21875 -1.0625 0.296875 -1.71875q0.078125 -0.671875 0.046875 -1.046875q-0.03125 -0.375 -0.15625 -0.5q-0.125 -0.140625 -0.34375 -0.140625q-0.390625 0 -0.90625 0.453125q-0.515625 0.4375 -1.09375 1.1875q-0.5625 0.734375 -1.125 1.703125q-0.5625 0.96875 -1.0625 2.015625q-0.5 1.046875 -0.875 2.078125q-0.375 1.015625 -0.53125 1.890625l-1.5625 7.796875l-3.125 0l2.765625 -13.71875q0.203125 -1.0625 0.28125 -1.71875q0.078125 -0.671875 0.046875 -1.046875q-0.015625 -0.375 -0.15625 -0.5q-0.125 -0.140625 -0.328125 -0.140625q-0.390625 0 -0.921875 0.453125q-0.515625 0.4375 -1.078125 1.1875q-0.5625 0.734375 -1.140625 1.703125q-0.578125 0.96875 -1.0625 2.015625q-0.484375 1.046875 -0.859375 2.078125q-0.375 1.015625 -0.546875 1.890625l-1.5625 7.796875l-3.109375 0l2.109375 -10.609375q0.078125 -0.375 0.15625 -0.96875q0.09375 -0.609375 0.21875 -1.625q0.140625 -1.03125 0.3125 -2.578125q0.171875 -1.5625 0.40625 -3.828125l2.90625 0l-0.484375 4.53125q0.546875 -1.0 1.125 -1.875q0.59375 -0.875 1.21875 -1.546875q0.640625 -0.6875 1.359375 -1.078125q0.734375 -0.390625 1.546875 -0.390625q1.0 0 1.65625 0.390625q0.65625 0.390625 0.953125 1.0625q0.3125 0.65625 0.265625 1.546875q-0.03125 0.890625 -0.421875 1.890625q0.546875 -1.0 1.109375 -1.875q0.578125 -0.875 1.21875 -1.546875q0.640625 -0.6875 1.359375 -1.078125q0.71875 -0.390625 1.546875 -0.390625q1.953125 0 2.625 1.484375q0.671875 1.46875 0.046875 4.59375l-2.75 13.890625l-3.125 0zm24.617188 -1.328125q-1.875 0.765625 -3.734375 1.1875q-1.859375 0.421875 -3.8125 0.421875q-1.84375 0 -3.015625 -0.453125q-1.171875 -0.453125 -1.765625 -1.46875q-0.578125 -1.03125 -0.59375 -2.6875q-0.015625 -1.671875 0.453125 -4.078125l3.875 -19.1875l3.484375 0l-3.828125 19.1875q-0.359375 1.75 -0.453125 2.859375q-0.078125 1.109375 0.140625 1.765625q0.21875 0.640625 0.734375 0.890625q0.515625 0.25 1.375 0.25q1.4375 0 3.203125 -0.40625q1.78125 -0.40625 3.9375 -1.3125l0 3.03125z" fill-rule="nonzero"></path></g></svg>

